<?xml version="1.0" encoding="UTF-8" standalone="no"?>
<!--part of the matt icon theme by sixsixfive released under CC0 (https://creativecommons.org/publicdomain/zero/1.0/) on openclipart-->

<svg
   xmlns:dc="http://purl.org/dc/elements/1.1/"
   xmlns:cc="http://creativecommons.org/ns#"
   xmlns:rdf="http://www.w3.org/1999/02/22-rdf-syntax-ns#"
   xmlns:svg="http://www.w3.org/2000/svg"
   xmlns="http://www.w3.org/2000/svg"
   xmlns:xlink="http://www.w3.org/1999/xlink"
   xmlns:sodipodi="http://sodipodi.sourceforge.net/DTD/sodipodi-0.dtd"
   xmlns:inkscape="http://www.inkscape.org/namespaces/inkscape"
   viewBox="0 0 128 128"
   id="svg2"
   version="1.1"
   inkscape:version="0.91 r13725"
   sodipodi:docname="application-x-dbpz.svg"
   width="128"
   height="128">
  <title
     id="title4216">Debreate Compressed Project</title>
  <metadata
     id="metadata47">
    <rdf:RDF>
      <cc:Work
         rdf:about="">
        <dc:format>image/svg+xml</dc:format>
        <dc:type
           rdf:resource="http://purl.org/dc/dcmitype/StillImage" />
        <dc:title>Debreate Compressed Project</dc:title>
        <dc:source>https://openclipart.org/detail/211800/package</dc:source>
      </cc:Work>
    </rdf:RDF>
  </metadata>
  <sodipodi:namedview
     pagecolor="#ffffff"
     bordercolor="#666666"
     borderopacity="1"
     objecttolerance="10"
     gridtolerance="10"
     guidetolerance="10"
     inkscape:pageopacity="0"
     inkscape:pageshadow="2"
     inkscape:window-width="1600"
     inkscape:window-height="949"
     id="namedview45"
     showgrid="false"
     fit-margin-top="0"
     fit-margin-left="0"
     fit-margin-right="0"
     fit-margin-bottom="0"
     inkscape:zoom="1.84375"
     inkscape:cx="101.94989"
     inkscape:cy="102.44912"
     inkscape:window-x="1366"
     inkscape:window-y="0"
     inkscape:window-maximized="1"
     inkscape:current-layer="svg2" />
  <defs
     id="0">
    <linearGradient
       id="D">
      <stop
         id="T" />
      <stop
         id="U"
         offset="1"
         stop-opacity="0" />
    </linearGradient>
    <linearGradient
       id="E">
      <stop
         id="V"
         stop-color="#fff" />
      <stop
         id="W"
         offset="1"
         stop-color="#eddabc" />
    </linearGradient>
    <linearGradient
       id="F">
      <stop
         id="X"
         stop-color="#c29650" />
      <stop
         id="Y"
         offset="1"
         stop-color="#cca86e" />
    </linearGradient>
    <linearGradient
       id="G">
      <stop
         id="Z"
         stop-color="#a37a39" />
      <stop
         id="a"
         offset="1"
         stop-color="#c39854" />
    </linearGradient>
    <linearGradient
       id="H">
      <stop
         id="b"
         stop-color="#eddabc" />
      <stop
         id="c"
         offset="1"
         stop-color="#d8af6e" />
    </linearGradient>
    <radialGradient
       cx="211.14999"
       cy="382.63"
       r="110.72"
       id="I"
       xlink:href="#H"
       gradientUnits="userSpaceOnUse"
       gradientTransform="matrix(0.13337487,-0.58579661,0.43334796,0.09866518,-140.53171,197.47031)" />
    <radialGradient
       cx="445.35999"
       cy="201.92999"
       r="119.48"
       id="J"
       xlink:href="#G"
       gradientUnits="userSpaceOnUse"
       gradientTransform="matrix(-0.37117278,0.14517548,-0.14805715,-0.37854038,312.3712,40.739168)" />
    <radialGradient
       cx="139.25999"
       cy="162.96001"
       r="134.88"
       id="K"
       xlink:href="#E"
       gradientUnits="userSpaceOnUse"
       gradientTransform="matrix(0.50693897,-0.129967,0.0262165,0.10225801,-39.663475,32.07396)" />
    <radialGradient
       cx="212.44"
       cy="280.07001"
       r="228.86"
       id="L"
       xlink:href="#F"
       gradientUnits="userSpaceOnUse"
       gradientTransform="matrix(0.03919011,-0.09570432,0.16373591,0.06704846,-2.2215551,38.191936)" />
    <filter
       id="M"
       style="color-interpolation-filters:sRGB">
      <feGaussianBlur
         stdDeviation="1.84125"
         id="d" />
    </filter>
    <filter
       id="N"
       style="color-interpolation-filters:sRGB">
      <feGaussianBlur
         stdDeviation="1.0013"
         id="e" />
    </filter>
    <linearGradient
       x1="48.299999"
       y1="135.17"
       x2="72.260002"
       y2="131"
       id="O"
       xlink:href="#D"
       gradientUnits="userSpaceOnUse" />
    <linearGradient
       id="linearGradient1697">
      <stop
         offset="0"
         style="stop-color:#0e56db"
         id="stop1698" />
      <stop
         offset="1"
         style="stop-color:#071176"
         id="stop1699" />
    </linearGradient>
    <linearGradient
       gradientTransform="matrix(2.9814595,0,0,2.9814595,-1357.1494,-1248.7817)"
       inkscape:collect="always"
       x1="520.57001"
       y1="506.29001"
       x2="520.57001"
       gradientUnits="userSpaceOnUse"
       xlink:href="#linearGradient1697"
       y2="466.28"
       id="linearGradient1076" />
    <linearGradient
       gradientTransform="matrix(2.9814595,0,0,2.9814595,-1357.1494,-1248.7817)"
       inkscape:collect="always"
       x1="522.94"
       y1="469.5"
       x2="522.94"
       gradientUnits="userSpaceOnUse"
       xlink:href="#linearGradient1697"
       y2="505.07999"
       id="linearGradient1077" />
    <linearGradient
       inkscape:collect="always"
       x1="213.83"
       x2="214.59"
       gradientTransform="matrix(0.50570776,0,0,0.20943637,94.199064,106.71009)"
       y1="183.48"
       gradientUnits="userSpaceOnUse"
       y2="463.47"
       id="linearGradient1078">
      <stop
         offset="0"
         style="stop-color:#ffffff;stop-opacity:.69072"
         id="stop1703" />
      <stop
         offset="1"
         style="stop-color:#ffffff;stop-opacity:0"
         id="stop1704" />
    </linearGradient>
  </defs>
  <g
     id="g4205"
     transform="matrix(1.0821763,0,0,1.0821763,-5.5639189,-3.557598)">
    <path
       id="3"
       d="m 122.98281,20.994105 a 1.0705541,1.0705541 0 0 0 -0.35278,-0.164881 L 65.146851,4.8304065 a 1.0705541,1.0705541 0 0 0 -0.52278,-0.022732 L 5.9720049,18.455018 A 1.0705541,1.0705541 0 0 0 5.1423863,19.54388 l 2.9249675,69.015876 a 1.0705541,1.0705541 0 0 0 0.5305693,0.880488 L 61.602422,119.92035 a 1.0705541,1.0705541 0 0 0 1.030331,0.0328 L 118.22133,91.836197 a 1.0705541,1.0705541 0 0 0 0.58096,-0.883254 l 4.6172,-69.027575 a 1.0705541,1.0705541 0 0 0 -0.43668,-0.931263 z"
       inkscape:connector-curvature="0"
       style="fill:#debd87" />
    <path
       id="4"
       d="M 6.2472459,20.340269 9.1332307,88.517696 61.715239,118.75711 62.4297,40.768071 6.2472459,20.340269 Z"
       style="fill:url(#I)"
       inkscape:connector-curvature="0" />
    <path
       id="5"
       d="m 122.34471,21.870475 -59.789046,18.790616 -0.840425,78.096019 0.428141,0.24578 55.57899,-28.130421 4.62234,-69.001994 z"
       style="fill:url(#J)"
       inkscape:connector-curvature="0" />
    <path
       id="6"
       d="M 64.854937,5.8469168 6.2155318,19.507773 l 0.031714,0.832496 56.3084182,20.320822 59.789046,-18.790616 0,-0.0079 L 64.854937,5.8469295 Z"
       style="fill:url(#L)"
       inkscape:connector-curvature="0" />
    <path
       id="7"
       d="M 6.0980104,19.74213 62.671811,40.820785 122.74052,21.708015"
       inkscape:connector-curvature="0"
       style="fill:none;stroke:#debc85;stroke-width:1.12300003" />
    <path
       id="8"
       d="M 62.562595,40.820785 62.125732,119.45619"
       inkscape:connector-curvature="0"
       style="fill:none;stroke:#debc85;stroke-width:1.12300003" />
    <path
       id="9"
       d="m 73.736489,41.471498 -8.236088,11.128322 3.939799,-1.24975 0.195562,7.675847 8.910728,-2.84348 -0.194993,-7.653619 3.939799,-1.249752 -8.554807,-5.807568 z"
       inkscape:connector-curvature="0"
       style="fill:#57401e" />
    <path
       id="B"
       d="M 34.37719,29.724231 91.556048,13.211371"
       inkscape:connector-curvature="0"
       style="opacity:0.70800003;fill:#eddabc;stroke:#000000;stroke-width:0.38100001" />
    <path
       id="C"
       d="m 88.344436,11.310762 -58.335387,16.529896 -0.412283,9.157452 1.339921,-0.451926 -1.062423,1.070351 0.0555,0.02377 1.974204,-0.745282 -0.261642,1.228922 1.220994,-0.523283 -0.420212,0.91971 0.03171,0.01586 1.355779,-0.80871 0.08721,1.268565 0.832496,-0.737354 0.475712,0.911781 0.792853,-0.436069 0.261641,1.054495 0.959352,-0.880067 c 0,0 0.119342,0.225878 0.150642,0.285427 l 0.467784,-7.524162 60.182279,-17.663351 -9.696137,-2.696025 z"
       style="opacity:0.70800003;fill:url(#K)"
       inkscape:connector-curvature="0" />
  </g>
  <g
     style="display:inline"
     transform="matrix(0.5,0,0,0.5,-69.498245,-5.6873709)"
     inkscape:label="D"
     id="layer1">
    <circle
       inkscape:label="Background"
       style="fill:url(#linearGradient1076);stroke:url(#linearGradient1077);stroke-width:4.06820154;stroke-linecap:round;stroke-linejoin:round"
       id="path1070"
       cx="202.99649"
       cy="203.37474"
       r="61.9659" />
    <g
       id="g3460">
      <path
         sodipodi:nodetypes="cccccccccccssccccccccccccccccccccccccccccccccccccccccccccccccccccccccccccc"
         id="path3900"
         style="fill:#bb1e00;fill-opacity:1;image-rendering:auto"
         d="m 206.8746,243.30047 -1.76777,0 0,-7.8286 1.76764,0 0,-2.0204 4.04074,1e-4 0,-4.04062 2.02031,0 0,-52.02285 -2.02031,0 0,-4.04061 -4.04074,0 0,-2.02031 -1.76764,0 0,-7.82868 1.76764,0 0,-2.0203 18.18288,0 0,2.0203 4.04012,0 0,1.76797 2.021,0 0,2.02 1.768,0 0,2.02 2.02,0 0,2.021 2.02017,-2.9e-4 0,4.04061 2.0203,0 0,4.04061 2.02031,0 0,6.06092 2.0203,0 0,9.84899 2.02031,0 0,16.16244 -2.02031,0 0,9.84898 -2.0203,0 0,6.06092 -2.02031,0 0,4.04061 -2.0203,0 0,4.04061 -2.02017,0 0,2.0206 -2.02,0 0,1.767 -1.768,0 0,2.021 -2.021,0 4.9e-4,2.02008 -4.04061,0 0,2.02031 -18.18275,0 z m -39.90113,8e-5 -2.0202,0 0,-7.82908 2.02031,0 0,-2.0199 6.06091,0 0,-60.10408 -6.06102,0 0,-2.02031 -2.0202,0 0,-7.82871 2.02031,0 0,-2.02027 34.09264,0 0,83.84266 -34.09275,0 z"
         inkscape:connector-curvature="0" />
      <g
         id="g3792"
         style="fill:#bb1e00;fill-opacity:1;image-rendering:auto"
         transform="matrix(2,0,0,2,-1408.4321,-1592.7782)">
        <g
           id="g3636"
           style="fill:#bb1e00;fill-opacity:1">
          <g
             id="g3624"
             style="fill:#bb1e00;fill-opacity:1" />
          <g
             id="g3632"
             style="fill:#bb1e00;fill-opacity:1" />
        </g>
      </g>
      <rect
         y="139.37474"
         x="138.99649"
         height="128"
         width="128"
         id="rect3454"
         style="display:inline;fill:none;fill-opacity:1;image-rendering:auto" />
    </g>
    <g
       id="g3500">
      <title
         id="title3505">Shine</title>
      <path
         id="path1713"
         style="opacity:0.9;fill:url(#linearGradient1078);fill-rule:evenodd"
         d="m 248.00006,187.05901 c 14.43996,-0.31568 -4.03551,-40.08171 -44.15627,-40.29325 -43.79177,-0.2213 -52.75125,36.11129 -45.79651,36.7752 0,0 11.99913,1.64675 23.41246,4.8361 18.37783,5.18433 40.85952,-4.25356 49.71811,-5.62693 9.87398,-1.52633 15.41629,5.01184 16.82221,4.30888 z"
         sodipodi:nodetypes="cccccc"
         inkscape:connector-curvature="0"
         inkscape:label="Shine">
        <title
           id="title3379">Shine</title>
      </path>
      <rect
         y="139.37474"
         x="138.99649"
         height="128"
         width="128"
         id="rect3494"
         style="display:inline;fill:none;fill-opacity:1;image-rendering:auto" />
    </g>
    <g
       transform="translate(-4.7851563e-7,-1.5859375e-5)"
       id="g3448">
      <rect
         style="display:inline;fill:none;fill-opacity:1;image-rendering:auto"
         id="rect4191"
         width="128"
         height="128"
         x="138.99649"
         y="139.37476" />
      <path
         inkscape:connector-curvature="0"
         id="path3905"
         d="m 166.9711,161.4431 0,1.96484 -1.96289,0 0,8.03516 1.96289,0 0,1.96484 6.07226,0 0,60 -6.07226,0 0,1.96289 -1.96289,0 0,8.03711 1.96289,0 0,1.96289 34.10742,0 0,-83.92773 -34.10742,0 z m 40,0 0,1.96484 -1.96289,0 0,8.03516 1.96289,0 0,1.96484 4.10742,0 0,3.92774 1.96484,0 0,51.96484 -1.96484,0 0,4.10742 -4.10742,0 0,1.96289 -1.96289,0 0,8.03711 1.96289,0 0,1.96289 18.03711,0 0,-1.96289 3.92773,0 0,-1.96484 2.14258,0 0,-2.14258 1.96484,0 0,-1.96484 1.96485,0 0,-1.96485 1.96289,0 0,-3.92773 1.96484,0 0,-4.10742 2.14258,0 0,-5.89258 1.96485,0 0,-10 1.96484,0 0,-16.07227 -1.96484,0 0,-10 -1.96485,0 0,-6.07031 -2.14258,0 0,-3.92969 -1.96484,0 0,-3.92773 -1.96289,0 0,-2.14258 -1.96485,0 0,-1.96484 -1.96484,0 0,-1.96485 -2.14258,0 0,-1.96289 -3.92773,0 0,-1.96484 -18.03711,0 z m -38.03516,3.92773 30,0 0,76.07227 -30,0 0,-4.10742 6.07227,0 0,-68.03516 -6.07227,0 0,-3.92969 z m 40,0 16.07227,0 0,1.96485 3.92773,0 0,1.96484 2.14258,0 0,2.14258 1.96484,0 0,3.92773 1.96485,0 0,1.96485 1.96289,0 0,4.10742 1.96484,0 0,7.85742 2.14258,0 0,30 -2.14258,0 0,6.07031 -1.96484,0 0,3.92969 -1.96289,0 0,4.10742 -1.96485,0 0,1.96289 -1.96484,0 0,1.96485 -2.14258,0 0,1.96484 -1.96484,0 0,2.14258 -18.03516,0 0,-4.10742 2.14258,0 0,-1.96485 1.96484,0 0,-1.96289 0,-1.96484 1.96485,0 0,-58.03516 -1.96485,0 0,-1.96484 -1.96484,0 0,-2.14258 -2.14258,0 0,-3.92969 z"
         style="fill:#000000;fill-opacity:1;image-rendering:auto" />
    </g>
    <g
       id="g3476">
      <path
         sodipodi:nodetypes="cccccccccccccccccccccccccccccccccc"
         inkscape:connector-curvature="0"
         id="path4164"
         d="m 207.04335,161.38841 -1.96484,1.96289 0,8.03711 7.85742,6.07031 0,51.96485 -7.66992,8.39258 -0.1875,5.53515 1.96484,1.96485 18.03516,0 5.89258,-3.92774 4.10742,-3.92969 1.96484,-2.14257 3.92774,-7.85743 1.96484,-6.07031 2.14258,-10 0,-16.07226 -2.14258,-10 -1.96484,-5.89258 -3.92774,-8.03516 c 0,0 -11.96484,-9.89212 -11.96484,-10 z m 1.9629,3.92774 14.0332,0 5.9668,4.10742 1.96484,1.96484 7.96096,16.07031 0,33.92969 -5.89258,10 -10,10 -14.0332,0 7.99217,-10.04492 -0.0293,-56.02734 -7.96289,-5.89258 z"
         style="display:inline;fill:#220500;fill-opacity:1;image-rendering:auto" />
      <rect
         y="139.37474"
         x="138.99649"
         height="128"
         width="128"
         id="rect3470"
         style="display:inline;fill:none;fill-opacity:1;image-rendering:auto" />
    </g>
    <g
       id="g3488">
      <path
         sodipodi:nodetypes="ccccccccccccccccccccccccccccccccccccccccccccccccccccccccccccccccccccccccccccccccccccccccccccccccccccccccccccccccccc"
         inkscape:connector-curvature="0"
         id="path3918"
         transform="translate(138.99649,139.37474)"
         d="m 58.066406,26.019531 0,75.894529 1.964844,0 0,-75.894529 z m 25.894532,0 0,1.964844 1.964843,0 0,-1.964844 z m -53.929688,1.964844 0,1.964844 5.894531,0 0,68.035156 -5.894531,0 0,1.964844 8.035156,0 0,-71.964844 z m 40,0 0,1.964625 2.14875,0 0,-1.964625 z m 18.035156,0 0,1.964844 1.964844,0 0,-1.964844 z m 1.964844,1.964844 0,1.964843 1.964844,0 0,-1.964843 z m 1.964844,1.964843 0,2.140626 1.964844,0 0,-2.140626 z m -18.035156,0 0,2.140626 1.964843,0 0,-2.140626 z m 1.964843,4.105469 0,1.964844 0,51.964844 0,1.964843 2.140625,0 0,-1.964843 0,-51.964844 0,-1.964844 z m 18.035157,0 0,1.964844 1.964843,0 0,-1.964844 z m 1.964843,3.929688 0,1.964843 2.140625,0 0,-1.964843 z m 2.140625,4.105469 -4.06e-4,6.161312 1.96525,0 0,25.803531 1.96484,0 -9e-5,-28.035531 -1.96475,0 0,-3.929312 z m 0,37.859374 0,4.105469 1.964844,0 0,-4.105469 z m -2.140625,6.070313 0,1.964844 2.140625,0 0,-1.964844 z m -1.964843,3.929687 0,2.140626 1.964843,0 0,-2.140626 z m 0,2.140626 -1.964844,0 0,1.964843 1.964844,0 z m -1.964844,1.964843 -1.964844,0 0,1.964844 1.964844,0 z m -1.964844,1.964844 -1.964844,0 0,1.964844 1.964844,0 z m -16.070312,-3.929687 0,1.964843 1.964843,0 0,-1.964843 z m -3.929688,3.929687 0,1.964844 3.929688,0 0,-1.964844 z m 15.894531,3.929685 0,-1.964841 c -2.732923,-0.306711 -2.732923,1.964841 0,1.964841 z"
         style="display:inline;fill:#420b00;fill-opacity:1;image-rendering:auto" />
      <rect
         y="139.37474"
         x="138.99649"
         height="128"
         width="128"
         id="rect3482"
         style="display:inline;fill:none;fill-opacity:1;image-rendering:auto" />
    </g>
  </g>
</svg>
