<?xml version="1.0" encoding="UTF-8" standalone="no"?>
<!-- Created with Inkscape (http://www.inkscape.org/) -->

<svg
   xmlns:dc="http://purl.org/dc/elements/1.1/"
   xmlns:cc="http://creativecommons.org/ns#"
   xmlns:rdf="http://www.w3.org/1999/02/22-rdf-syntax-ns#"
   xmlns:svg="http://www.w3.org/2000/svg"
   xmlns="http://www.w3.org/2000/svg"
   xmlns:xlink="http://www.w3.org/1999/xlink"
   xmlns:sodipodi="http://sodipodi.sourceforge.net/DTD/sodipodi-0.dtd"
   xmlns:inkscape="http://www.inkscape.org/namespaces/inkscape"
   id="svg4723"
   viewBox="0 0 128 128"
   version="1.1"
   inkscape:version="0.91 r13725"
   sodipodi:docname="btn-refresh-square.svg"
   width="128"
   height="128">
  <title
     id="title4174">Button Refresh</title>
  <sodipodi:namedview
     pagecolor="#ffffff"
     bordercolor="#666666"
     borderopacity="1"
     objecttolerance="10000"
     gridtolerance="10000"
     guidetolerance="10000"
     inkscape:pageopacity="0"
     inkscape:pageshadow="2"
     inkscape:window-width="1600"
     inkscape:window-height="949"
     id="namedview29"
     showgrid="true"
     showguides="true"
     fit-margin-top="0.1"
     fit-margin-left="-0.4"
     inkscape:zoom="4"
     inkscape:cx="0.4535987"
     inkscape:cy="85.575827"
     inkscape:window-x="1366"
     inkscape:window-y="0"
     inkscape:window-maximized="1"
     inkscape:current-layer="svg4723">
    <inkscape:grid
       type="xygrid"
       id="grid3382"
       dotted="true"
       snapvisiblegridlinesonly="false"
       enabled="true"
       visible="false" />
  </sodipodi:namedview>
  <defs
     id="defs3">
    <filter
       id="filter4679-17"
       style="color-interpolation-filters:sRGB">
      <feGaussianBlur
         id="feGaussianBlur4681-8"
         stdDeviation="9.2580908" />
    </filter>
    <linearGradient
       id="linearGradient3515"
       y2="2367.8"
       gradientUnits="userSpaceOnUse"
       x2="290.45001"
       y1="2850.2"
       x1="275.67999"
       gradientTransform="matrix(0.19863314,0,0,0.19781716,18.848097,-480.76823)">
      <stop
         id="stop3511"
         style="stop-color:#0000ff"
         offset="0" />
      <stop
         id="stop3513"
         style="stop-color:#0000ff;stop-opacity:0"
         offset="1" />
    </linearGradient>
    <linearGradient
       id="linearGradient3503"
       y2="4602.6001"
       gradientUnits="userSpaceOnUse"
       x2="1469.1"
       y1="4807.3999"
       x1="1471.4">
      <stop
         id="stop3964-65-95"
         style="stop-color:#ffffff"
         offset="0" />
      <stop
         id="stop3966-5-15"
         style="stop-color:#ffffff;stop-opacity:0"
         offset="1" />
    </linearGradient>
    <filter
       id="filter3958-8-73"
       style="color-interpolation-filters:sRGB">
      <feGaussianBlur
         id="feGaussianBlur3960-0-7"
         stdDeviation="3.7445471" />
    </filter>
    <linearGradient
       id="linearGradient3505"
       y2="5150.8999"
       gradientUnits="userSpaceOnUse"
       x2="1492.1"
       gradientTransform="matrix(0.33942431,0,0,0.72470316,-443.55001,-3597.7733)"
       y1="4909.7998"
       x1="1499">
      <stop
         id="stop4056-76-4"
         style="stop-color:#ffffff"
         offset="0" />
      <stop
         id="stop4058-1-11"
         style="stop-color:#ffffff;stop-opacity:0"
         offset="1" />
    </linearGradient>
    <linearGradient
       id="linearGradient5428"
       y2="4696.7998"
       gradientUnits="userSpaceOnUse"
       x2="1475.8"
       gradientTransform="matrix(0.32130897,0,0,0.31081033,-417.54893,-1373.6159)"
       y1="5124.2998"
       x1="1480.3">
      <stop
         id="stop3976-56-2"
         style="stop-color:#000000"
         offset="0" />
      <stop
         id="stop3978-18-5"
         style="stop-color:#000000;stop-opacity:0"
         offset="1" />
    </linearGradient>
    <linearGradient
       id="7">
      <stop
         stop-color="#a4c0e4"
         id="F" />
      <stop
         stop-color="#6193cf"
         offset="1"
         id="G" />
    </linearGradient>
    <linearGradient
       id="8">
      <stop
         stop-color="#fff"
         id="H" />
      <stop
         stop-opacity="0"
         stop-color="#fff"
         offset="1"
         id="I" />
    </linearGradient>
    <linearGradient
       id="9">
      <stop
         id="J" />
      <stop
         stop-opacity="0"
         offset="1"
         id="K" />
    </linearGradient>
    <radialGradient
       gradientTransform="matrix(1,0,0,0.06153846,0,117.07494)"
       gradientUnits="userSpaceOnUse"
       xlink:href="#9"
       id="A"
       r="39.585"
       cy="124.75"
       cx="68.01" />
    <filter
       id="B"
       color-interpolation-filters="sRGB"
       height="2.145"
       width="1.07"
       y="-0.573"
       x="-0.035">
      <feGaussianBlur
         id="L"
         stdDeviation="1.16249" />
    </filter>
    <linearGradient
       gradientUnits="userSpaceOnUse"
       xlink:href="#8"
       id="C"
       y2="9.54"
       x2="0"
       y1="3.565"
       gradientTransform="matrix(0.71483024,0,0,0.71483024,18.250863,18.303995)" />
    <linearGradient
       gradientTransform="matrix(0.84464465,0,0,0.89784323,15.554638,9.8053318)"
       gradientUnits="userSpaceOnUse"
       xlink:href="#8"
       id="D"
       y2="46.44"
       x2="0"
       y1="33.954" />
    <linearGradient
       gradientUnits="userSpaceOnUse"
       xlink:href="#7"
       id="E"
       y2="122.44"
       x2="0"
       y1="1.581"
       gradientTransform="matrix(0.71483024,0,0,0.71483024,18.250863,18.303995)" />
  </defs>
  <metadata
     id="metadata27">
    <rdf:RDF>
      <cc:Work>
        <dc:format>image/svg+xml</dc:format>
        <dc:type
           rdf:resource="http://purl.org/dc/dcmitype/StillImage" />
        <cc:license
           rdf:resource="" />
        <dc:publisher>
          <cc:Agent
             rdf:about="http://openclipart.org/">
            <dc:title />
          </cc:Agent>
        </dc:publisher>
        <dc:title>Button Refresh</dc:title>
        <dc:date />
        <dc:description>Sources:
https://openclipart.org/detail/78679/but-10-by-inky2010
https://openclipart.org/detail/211882/matticonsviewrefresh</dc:description>
        <dc:source />
        <dc:creator>
          <cc:Agent>
            <dc:title />
          </cc:Agent>
        </dc:creator>
        <dc:subject>
          <rdf:Bag />
        </dc:subject>
      </cc:Work>
    </rdf:RDF>
  </metadata>
  <g
     id="g4234">
    <g
       id="g4176">
      <rect
         x="0.03793719"
         y="3.7651124"
         width="127.93961"
         height="120.21546"
         ry="12.768307"
         style="fill:#000080"
         id="rect3491" />
      <rect
         x="0.03793719"
         y="3.7651124"
         width="127.93961"
         height="120.21546"
         ry="12.768307"
         style="fill:url(#linearGradient3515)"
         id="rect3493" />
      <path
         inkscape:connector-curvature="0"
         transform="matrix(-0.32130897,0,0,-0.31998904,544.35194,1541.3187)"
         d="m 1655.5,4444.8 c -4.793,0.5602 -1.703,5.5631 1.7187,5.6875 18.515,7.8774 28.751,29.128 25.711,48.75 -0.5387,89.326 1.237,178.71 -1.0238,268 -4.5621,21.944 -28.442,36.766 -50.219,33.153 -96.339,-0.5175 -192.72,1.1117 -289.03,-0.9341 -17.224,-3.4141 -30.038,-18.915 -33.474,-35.615 -2.4992,-9.4552 -4.5365,1.9534 -4.1674,6.0214 -0.9617,11.387 2.9521,23.441 12.579,30.125 9.322,7.6329 21.992,8.3985 33.5,7.1186 104.33,-0.3933 208.7,0.892 313,-0.7436 18.474,-4.0375 29.092,-24.974 25.465,-42.75 -0.5424,-97.886 1.1097,-195.85 -0.9028,-293.69 -3.5787,-14.574 -18.078,-25.681 -33.156,-25.125 z m -322.56,0.4375 c -19.294,2.3707 -31.84,23.648 -28.092,42.125 0.5441,10.149 -1.013,20.746 0.8727,30.609 1.7428,6.6781 4.5781,-3.6467 3.8752,-6.6402 0.4203,-15.714 -2.9176,-33.723 7.9063,-46.812 6.2555,-9.2117 16.709,-13.421 26.187,-18.438 -3.582,-0.394 -7.1305,-1.1153 -10.75,-0.8437 z"
         style="opacity:0.87999998;fill:url(#linearGradient3503);filter:url(#filter3958-8-73)"
         id="path3495" />
      <rect
         x="-1.1939863"
         y="5.8224397"
         width="127.93961"
         height="116.77344"
         ry="12.402543"
         style="fill:url(#linearGradient5428)"
         id="rect3499" />
    </g>
    <path
       sodipodi:nodetypes="ccccccssscccccccccccssccscccsscccccssscssscsscccccssscsscccccccccccccscssccccccsssscccccssscc"
       id="2"
       d="m 50.643755,16.009766 c -0.277098,0.0046 -0.561612,0.02265 -0.903805,0.05021 -0.131676,0.01061 -0.205062,0.03587 -0.301269,0.05021 -0.03455,0.0022 -0.120264,0.01274 -0.225952,0.02511 -0.02922,0.0034 -0.0927,0.02058 -0.125528,0.0251 -0.204647,0.02823 -0.449898,0.0521 -0.778278,0.17574 -0.0036,0.0014 -0.486962,0.198429 -0.903805,0.477009 -0.628495,0.42003 -1.008975,0.923864 -1.280392,1.355709 -0.311889,0.496243 -0.596979,1.104486 -0.677855,1.882929 -0.02871,0.276346 -0.03331,0.504021 -0.02511,0.677855 0.0036,0.07737 0.01813,0.131774 0.02511,0.200845 8.84e-4,0.0085 -9.64e-4,0.01647 0,0.02511 0.0042,0.03933 0.0064,0.05956 0.02511,0.17574 0.0047,0.02904 0.02505,0.175486 0.02511,0.17574 l 0.07532,0.276163 c 0,1e-6 0.02436,0.02405 0.02511,0.02511 0.0084,0.02873 0.01649,0.07334 0.0251,0.100423 l -0.0251,0 c -0.01416,-0.05374 0.05304,0.147556 0.05021,0.150634 -0.0089,0.0097 -0.01008,0.06114 0.150634,0.477009 0.175551,0.454232 0.30334,0.669832 0.376586,0.828488 0.254248,0.55072 0.570674,1.2476 0.979123,2.05867 0.811367,1.611157 2.962475,5.724104 2.962475,5.724104 l 8.937637,16.845938 c 0,0 2.17574,4.144055 3.062898,5.74921 0.457422,0.827622 1.129757,1.933141 1.129757,1.933141 0.375321,0.677303 0.865399,1.317301 1.380813,1.832717 0,0 0.534124,0.360476 0.778276,0.527215 0.550788,0.292727 1.216664,0.501272 1.908035,0.52722 0.67212,0.02523 1.45857,-0.0744 2.259515,-0.502115 0.349962,-0.186884 0.523258,-0.343274 0.70296,-0.502114 0.03038,-0.02686 0.09663,-0.04881 0.125529,-0.07532 0.0666,-0.06111 0.166863,-0.158856 0.251057,-0.251057 0.0421,-0.0461 0.05632,-0.03991 0.125528,-0.125529 0.01981,-0.02107 0.02763,-6.46e-4 0.05021,-0.02511 0.302478,-0.327593 0.430518,-0.540965 0.477009,-0.602537 0.236671,-0.313438 0.436556,-0.595141 0.677854,-0.954017 0.531061,-0.789836 1.177976,-1.824001 1.882929,-2.93737 0.691208,-1.09166 1.452524,-2.347991 2.209303,-3.565012 5.184159,3.740047 8.661474,9.585571 8.661474,16.469353 -2e-6,11.5227 -9.23974,20.762431 -20.762431,20.762431 -11.522697,-2e-6 -20.762431,-9.239735 -20.762431,-20.762431 -10e-7,-4.733075 1.624879,-9.005752 4.34329,-12.552861 0.622418,-0.81274 1.075303,-1.937727 0.8787,-3.313955 -0.179595,-1.257256 -0.822305,-2.243152 -1.732295,-2.912263 l -5.975156,-4.393505 -5.548362,-4.142448 -0.02511,0 c -1.593253,-1.169774 -3.688795,-0.980647 -5.171779,0.100423 -0.372284,0.206637 -0.697244,0.488839 -0.954017,0.828488 -5.528957,7.325531 -8.987848,16.431441 -8.987848,26.386113 0,24.214613 19.720397,43.935011 43.935011,43.935011 24.214445,0 43.985225,-19.714207 43.985225,-43.935011 0,-15.141651 -7.89483,-28.280413 -19.582464,-36.102027 0.458739,-0.720829 0.976345,-1.529212 1.355708,-2.133986 0.491901,-0.784177 0.940383,-1.462259 1.305498,-2.083775 0.192772,-0.328145 0.305545,-0.61378 0.401691,-0.803383 1.6e-5,-2.2e-5 0.02151,-0.01945 0.02511,-0.0251 0.01763,-0.02776 0.05731,-0.119793 0.07532,-0.150635 0.04337,-0.07425 0.05802,-0.09179 0.07532,-0.125528 0.0346,-0.06748 0.06076,-0.118621 0.07532,-0.150635 0.02041,-0.04486 0.01135,-0.06734 0.0251,-0.100423 0.02629,-0.06212 0.02592,-0.01038 0.05021,-0.07532 0.01101,-0.02902 0.0139,-0.06914 0.02511,-0.100423 0.02455,-0.06853 0.05147,-0.171289 0.07532,-0.251057 0.04059,-0.117954 0.07074,-0.227618 0.100423,-0.35148 0.0043,-0.02137 0.02091,-0.02804 0.0251,-0.05021 0.01334,-0.09995 0.02172,-0.200493 0.02511,-0.301269 1.38e-4,-0.01674 1.38e-4,-0.03347 0,-0.05021 0.02746,-0.181137 0.079,-0.329612 0.07532,-0.577432 -0.01014,-0.683292 -0.19611,-1.38182 -0.52722,-2.008458 -0.342223,-0.647729 -0.792374,-1.174271 -1.431026,-1.606766 -0.271932,-0.184152 -0.480719,-0.291608 -0.677854,-0.376586 -0.09857,-0.04249 -0.18005,-0.07806 -0.326375,-0.125528 -0.03065,-0.0099 -0.07426,-0.01067 -0.125528,-0.02511 -0.009,-0.0035 -0.01584,0.0035 -0.02511,0 -0.106636,-0.04017 -0.11357,-0.06295 -0.251057,-0.100423 -0.244222,-0.06656 -0.438428,-0.08138 -0.652749,-0.100423 -0.05311,-0.0083 -0.27363,-0.02985 -0.401692,-0.05021 -0.160622,-0.02553 -0.2554,-0.05278 -0.502114,-0.07532 -0.608392,-0.05558 -1.357059,-0.09905 -2.259515,-0.150635 -1.791557,-0.102396 -4.106265,-0.233471 -6.45217,-0.326374 -2.346473,-0.09292 -4.717232,-0.167838 -6.502382,-0.225951 -0.8815,-0.0287 -1.626813,-0.05821 -2.184197,-0.07532 -0.268015,-0.0082 -0.502664,0.0043 -0.652749,0 -0.07504,-0.0022 -0.111331,-0.02401 -0.150634,-0.0251 -0.0098,-2.74e-4 -0.01757,2.07e-4 -0.02511,0 -9e-5,-4e-6 -0.190183,4.37e-4 -0.200846,0 -0.152226,-0.0062 -1.187053,-0.05693 -2.862052,-0.125529 -1.792495,-0.07341 -4.161164,-0.169231 -6.502382,-0.251057 -2.320646,-0.08111 -4.652724,-0.169074 -6.477276,-0.200846 -0.930412,-0.0162 -1.693309,-0.0094 -2.259515,0 z"
       inkscape:connector-curvature="0"
       style="fill:#ffffff;fill-opacity:1;stroke:#000000;stroke-width:5.69999981;stroke-miterlimit:4;stroke-dasharray:none;stroke-opacity:1" />
    <path
       id="path3497"
       style="fill:url(#linearGradient3505)"
       d="M 116.20417,8.3347074 C 86.566108,9.3818532 56.818809,8.1171291 27.139046,8.7498073 21.185812,8.9448354 15.045862,8.8959351 9.2133969,9.4646784 5.8735796,13.863935 6.3731423,19.609137 6.0593013,24.763659 6.3457507,41.725493 6.1761375,58.687326 6.2010857,75.650146 13.766227,86.445028 22.324535,97.653349 35.126043,103.11904 c 6.059703,2.35817 13.18944,1.07674 18.231544,-2.72375 11.874489,-7.274723 21.335187,-17.26706 32.444738,-25.494673 9.807511,-8.440659 20.111605,-17.663095 33.547145,-20.262412 1.16957,-0.164483 2.67699,0.0067 2.03122,-1.606492 -0.1912,-13.787857 1.46206,-27.799247 -1.51731,-41.397197 -0.61847,-1.448754 -1.68423,-3.4720874 -3.65942,-3.2997889 z"
       inkscape:connector-curvature="0" />
  </g>
</svg>
