<?xml version="1.0" encoding="UTF-8" standalone="no"?>
<svg
   xmlns:dc="http://purl.org/dc/elements/1.1/"
   xmlns:cc="http://creativecommons.org/ns#"
   xmlns:rdf="http://www.w3.org/1999/02/22-rdf-syntax-ns#"
   xmlns:svg="http://www.w3.org/2000/svg"
   xmlns="http://www.w3.org/2000/svg"
   xmlns:xlink="http://www.w3.org/1999/xlink"
   xmlns:sodipodi="http://sodipodi.sourceforge.net/DTD/sodipodi-0.dtd"
   xmlns:inkscape="http://www.inkscape.org/namespaces/inkscape"
   version="1.1"
   id="Layer_1"
   x="0px"
   y="0px"
   viewBox="0 0 128 128"
   enable-background="new 0 0 1920 1920"
   xml:space="preserve"
   inkscape:version="0.91 r13725"
   sodipodi:docname="btn-zoom.svg"
   width="128"
   height="128"><title
     id="title4248">Zoom Button</title><metadata
     id="metadata58"><rdf:RDF><cc:Work
         rdf:about=""><dc:format>image/svg+xml</dc:format><dc:type
           rdf:resource="http://purl.org/dc/dcmitype/StillImage" /><dc:title>Zoom Button</dc:title><dc:date>2017-02-06</dc:date><dc:creator><cc:Agent><dc:title>Jordan Irwin</dc:title></cc:Agent></dc:creator><dc:description>Button background: https://openclipart.org/detail/26193/button-green
Magnifying glass: https://openclipart.org/detail/226532/magnifying-glass-icon</dc:description><cc:license
           rdf:resource="http://creativecommons.org/publicdomain/zero/1.0/" /></cc:Work><cc:License
         rdf:about="http://creativecommons.org/publicdomain/zero/1.0/"><cc:permits
           rdf:resource="http://creativecommons.org/ns#Reproduction" /><cc:permits
           rdf:resource="http://creativecommons.org/ns#Distribution" /><cc:permits
           rdf:resource="http://creativecommons.org/ns#DerivativeWorks" /></cc:License></rdf:RDF></metadata><defs
     id="defs56"><linearGradient
       id="linearGradient1076"
       y2="466.28"
       xlink:href="#linearGradient1697"
       gradientUnits="userSpaceOnUse"
       x2="520.57001"
       y1="506.29001"
       x1="520.57001"
       inkscape:collect="always"
       gradientTransform="matrix(2.9814594,0,0,2.9814594,-1496.1458,-1388.1563)" /><linearGradient
       id="linearGradient1697"><stop
         id="stop1698"
         style="stop-color:#69db0e"
         offset="0" /><stop
         id="stop1699"
         style="stop-color:#397607"
         offset="1" /></linearGradient><linearGradient
       id="linearGradient1077"
       y2="505.07999"
       xlink:href="#linearGradient1697"
       gradientUnits="userSpaceOnUse"
       x2="522.94"
       y1="469.5"
       x1="522.94"
       inkscape:collect="always"
       gradientTransform="matrix(2.9814594,0,0,2.9814594,-1496.1458,-1388.1563)" /><linearGradient
       id="linearGradient1078"
       y2="463.47"
       gradientUnits="userSpaceOnUse"
       y1="183.48"
       gradientTransform="matrix(0.50570774,0,0,0.20943636,-44.800677,-32.681249)"
       x2="214.59"
       x1="213.83"
       inkscape:collect="always"><stop
         id="stop1703"
         style="stop-color:#ffffff;stop-opacity:.69072"
         offset="0" /><stop
         id="stop1704"
         style="stop-color:#ffffff;stop-opacity:0"
         offset="1" /></linearGradient><linearGradient
       y2="378.1424"
       x2="1155.1598"
       y1="738.23602"
       x1="1155.1598"
       gradientUnits="userSpaceOnUse"
       id="SVGID_1_"
       gradientTransform="matrix(-0.05819839,0,0,0.05819839,119.00772,4.7948362)"><stop
         id="stop7"
         style="stop-color:#E6E6E6"
         offset="0" /><stop
         id="stop9"
         style="stop-color:#E7E7E7"
         offset="0.5918" /><stop
         id="stop11"
         style="stop-color:#EEEEEE"
         offset="0.8047" /><stop
         id="stop13"
         style="stop-color:#FAFAFA"
         offset="0.9562" /><stop
         id="stop15"
         style="stop-color:#FFFFFF"
         offset="1" /></linearGradient><linearGradient
       y2="349.48389"
       x2="1167.9906"
       y1="1192.2703"
       x1="1167.9906"
       gradientUnits="userSpaceOnUse"
       id="SVGID_2_"
       gradientTransform="matrix(-0.05819839,0,0,0.05819839,119.00772,4.7948362)"><stop
         id="stop20"
         style="stop-color:#EFEFEF"
         offset="0" /><stop
         id="stop22"
         style="stop-color:#DADADB"
         offset="0.457" /><stop
         id="stop24"
         style="stop-color:#C5C5C7"
         offset="1" /></linearGradient><linearGradient
       y2="192.5808"
       x2="1167.9584"
       y1="1348.9191"
       x1="1167.9584"
       gradientUnits="userSpaceOnUse"
       id="SVGID_3_"
       gradientTransform="matrix(-0.05819839,0,0,0.05819839,119.00772,4.7948362)"><stop
         id="stop29"
         style="stop-color:#59595B"
         offset="0" /><stop
         id="stop31"
         style="stop-color:#5C5C5E"
         offset="0.2701" /><stop
         id="stop33"
         style="stop-color:#676769"
         offset="0.4955" /><stop
         id="stop35"
         style="stop-color:#78787A"
         offset="0.7047" /><stop
         id="stop37"
         style="stop-color:#909092"
         offset="0.9031" /><stop
         id="stop39"
         style="stop-color:#9F9FA1"
         offset="1" /></linearGradient><linearGradient
       y2="1616.8181"
       x2="611.30731"
       y1="1375.0658"
       x1="369.5549"
       gradientUnits="userSpaceOnUse"
       id="SVGID_4_"
       gradientTransform="matrix(-0.05819839,0,0,0.05819839,119.00772,4.7948362)"><stop
         id="stop44"
         style="stop-color:#9F9FA1"
         offset="0" /><stop
         id="stop46"
         style="stop-color:#818183"
         offset="0.3512" /><stop
         id="stop48"
         style="stop-color:#646466"
         offset="0.7642" /><stop
         id="stop50"
         style="stop-color:#59595B"
         offset="1" /></linearGradient></defs><sodipodi:namedview
     pagecolor="#ffffff"
     bordercolor="#666666"
     borderopacity="1"
     objecttolerance="10"
     gridtolerance="10"
     guidetolerance="10"
     inkscape:pageopacity="0"
     inkscape:pageshadow="2"
     inkscape:window-width="1600"
     inkscape:window-height="949"
     id="namedview54"
     showgrid="false"
     inkscape:zoom="2.7812867"
     inkscape:cx="17.565742"
     inkscape:cy="80.057404"
     inkscape:window-x="1366"
     inkscape:window-y="0"
     inkscape:window-maximized="1"
     inkscape:current-layer="Layer_1"
     fit-margin-top="0"
     fit-margin-left="0"
     fit-margin-right="0"
     fit-margin-bottom="0" /><g
     id="g4240"><circle
       id="path1070"
       style="fill:url(#linearGradient1076);stroke:url(#linearGradient1077);stroke-width:4.06820154;stroke-linecap:round;stroke-linejoin:round"
       cx="64"
       cy="64"
       r="61.9659" /><g
       id="g4236"><path
         inkscape:connector-curvature="0"
         style="fill:url(#SVGID_3_);stroke:#59595b;stroke-width:0.00545901"
         id="path41"
         d="m 17.980541,43.384448 c 0.469673,-2.550841 1.267573,-5.03824 2.317472,-7.40866 0.678011,-1.530036 1.475911,-3.005365 2.373324,-4.417258 1.765745,-2.771408 3.937703,-5.283832 6.429182,-7.426115 1.198887,-1.033603 2.47285,-1.979327 3.806175,-2.831351 4.193188,-2.682946 8.992227,-4.403291 13.929785,-5.028923 6.114899,-0.790916 12.438741,0.172267 18.050812,2.72252 3.941195,1.779131 7.53203,4.325893 10.517613,7.453474 l -0.0035,0.0081 c 2.014252,2.095142 3.739247,4.467308 5.134844,7.015816 0.971913,1.778548 1.784945,3.643219 2.420471,5.567252 0.0041,0.02387 0.01222,0.07101 0.01571,0.09429 0.114069,0.256067 0.181579,0.529606 0.265967,0.796148 0.755415,2.515917 1.235551,5.119713 1.380465,7.743296 0.105921,1.691245 0.08672,3.393548 -0.08497,5.080138 -0.111159,1.310045 -0.306706,2.616017 -0.59537,3.899292 -0.335805,1.670294 -0.841549,3.303922 -1.429352,4.902632 l -0.01106,5.82e-4 c -1.092966,2.907592 -2.599722,5.659799 -4.449849,8.154177 -2.043922,2.759761 -4.512709,5.206428 -7.297496,7.2166 -4.074469,2.951822 -8.825792,4.951519 -13.776147,5.838457 C 51.30493,83.797354 45.372186,83.328281 39.935875,81.4153 35.577397,79.89283 31.539017,77.464211 28.151865,74.326736 25.99736,72.331695 24.104172,70.05381 22.545032,67.565253 c -1.043503,-1.65575 -1.934515,-3.406352 -2.670724,-5.219238 -1.250684,-3.093244 -2.063721,-6.372141 -2.344226,-9.697597 -0.02387,-0.153062 -0.03842,-0.306124 -0.04889,-0.459768 -0.22173,-2.939595 -0.064,-5.91004 0.499336,-8.804241 z m 48.41758,33.107895 c -0.364036,0.0044 -0.728061,0.0031 -1.092092,0.0052 0.364031,-0.0021 0.728061,-8.73e-4 1.092092,-0.0052 z m -39.751246,-24.167464 0.0047,0.04656 c 0.199038,1.653998 0.545319,3.292865 1.069686,4.874697 0.561615,1.744206 1.33158,3.419738 2.269156,4.993422 0.131528,0.216498 0.266554,0.430086 0.400986,0.644838 1.16863,1.828594 2.586925,3.494232 4.192031,4.954429 0.372469,0.332895 0.751923,0.658218 1.141852,0.970167 0.906731,0.725152 1.864676,1.38628 2.864525,1.976418 3.977865,2.356452 8.635477,3.547773 13.257011,3.38249 4.407364,-0.154226 8.767587,-1.51374 12.477735,-3.89871 0.814777,-0.521458 1.596387,-1.094718 2.341321,-1.711033 1.502677,-1.243699 2.852885,-2.670142 4.018011,-4.233933 0.726898,-0.979479 1.383958,-2.010754 1.9578,-3.086842 0.14666,-0.271205 0.287494,-0.545319 0.423684,-0.82118 0.657054,-1.336817 1.189569,-2.73416 1.597546,-4.167004 0.09136,-0.348609 0.183901,-0.696635 0.266548,-1.046989 0.254327,-1.080162 0.433584,-2.177784 0.53368,-3.282389 0.02444,-0.260147 0.04713,-0.519712 0.05762,-0.779859 0.0838,-1.320521 0.05063,-2.647445 -0.08613,-3.962728 -0.0017,-0.01863 -0.0052,-0.05529 -0.007,-0.07391 -0.176918,-1.627227 -0.510976,-3.237571 -1.005663,-4.797875 -0.321255,-1.043503 -0.720496,-2.063133 -1.184919,-3.051348 -0.161791,-0.332313 -0.323589,-0.664626 -0.494686,-0.992277 -0.893351,-1.713366 -2.000285,-3.313822 -3.27075,-4.768782 -0.579661,-0.650663 -1.183761,-1.281528 -1.829187,-1.867586 -2.721351,-2.528144 -6.036337,-4.40911 -9.59458,-5.471231 -3.758458,-1.127302 -7.784617,-1.319357 -11.637356,-0.580237 -3.91674,0.760076 -7.655405,2.462379 -10.760289,4.974804 -0.722818,0.58082 -1.409565,1.205288 -2.061963,1.864676 -0.669864,0.678006 -1.30248,1.393852 -1.882718,2.151013 -0.665213,0.847956 -1.261159,1.747697 -1.813462,2.673046 -0.657642,1.137196 -1.250101,2.315714 -1.71627,3.544864 -0.444054,1.119161 -0.795572,2.274393 -1.069105,3.446514 -0.20253,0.910217 -0.373052,1.83034 -0.456857,2.759762 -0.213594,1.770401 -0.187993,3.564075 -0.0029,5.336216 z" /><path
         inkscape:connector-curvature="0"
         style="fill:url(#SVGID_4_);stroke:#59595b;stroke-width:0.00545901"
         id="path52"
         d="m 70.994048,82.491433 c 0.212424,-0.342207 0.51622,-0.611083 0.80081,-0.889854 0.590708,-0.575 1.176772,-1.154074 1.762247,-1.73373 0.321837,-0.305541 0.619225,-0.637272 0.95911,-0.921862 0.410886,-0.465587 0.886943,-0.87414 1.321103,-1.319358 0.617491,-0.609337 1.23788,-1.215176 1.853043,-1.826841 0.432408,-0.428346 0.864822,-0.856104 1.303062,-1.278043 0.588967,-0.586052 1.185501,-1.16455 1.775633,-1.749438 0.304959,-0.299139 0.595369,-0.622146 0.971913,-0.832824 0.654155,-0.386438 1.448558,-0.498755 2.190587,-0.353259 0.578492,0.133851 1.124975,0.421357 1.539348,0.849115 7.417379,7.579752 14.838256,15.155437 22.253316,22.736941 0.69721,0.717586 1.41131,1.420035 2.09979,2.146939 0.81769,0.87588 1.02546,2.252277 0.51157,3.333011 -0.19322,0.43882 -0.51215,0.80722 -0.86832,1.12382 -0.42601,0.41961 -0.85028,0.84213 -1.27978,1.25883 -0.64251,0.6332 -1.27862,1.27338 -1.93045,1.89669 -0.53833,0.53601 -1.0819,1.06736 -1.62373,1.60045 -0.58024,0.56569 -1.14767,1.14418 -1.7314,1.70639 -0.49702,0.48828 -0.99519,0.97424 -1.49163,1.4631 -0.30437,0.29856 -0.60817,0.59828 -0.91138,0.89917 -0.34861,0.32998 -0.66172,0.70769 -1.080748,0.95329 -0.93874,0.58722 -2.201063,0.58955 -3.146787,0.0157 -0.413209,-0.23163 -0.722242,-0.59653 -1.049899,-0.92943 -7.814298,-7.97667 -15.628596,-15.952763 -23.441148,-23.930598 -0.309039,-0.313689 -0.6396,-0.616903 -0.857262,-1.005668 -0.57965,-0.971331 -0.556376,-2.269155 0.071,-3.212551 z" /></g><path
       id="path1713"
       inkscape:connector-curvature="0"
       sodipodi:nodetypes="cccccc"
       style="opacity:0.9;fill:url(#linearGradient1078);fill-rule:evenodd"
       d="M 109.00031,47.667669 C 123.44027,47.351988 104.96481,7.5859616 64.844045,7.3744229 21.052273,7.1531208 12.092794,43.485711 19.047537,44.149617 c 0,0 11.999128,1.646748 23.412456,4.836101 18.377834,5.184326 40.859519,-4.253555 49.71811,-5.62693 9.873977,-1.526333 15.416287,5.011841 16.822207,4.308881 z" /><g
       transform="translate(-881.17599,-953.299)"
       id="_x23_ffffffff" /></g></svg>