<?xml version="1.0" encoding="UTF-8" standalone="no"?>
<!-- Created with Inkscape (http://www.inkscape.org/) -->

<svg
   xmlns:dc="http://purl.org/dc/elements/1.1/"
   xmlns:cc="http://creativecommons.org/ns#"
   xmlns:rdf="http://www.w3.org/1999/02/22-rdf-syntax-ns#"
   xmlns:svg="http://www.w3.org/2000/svg"
   xmlns="http://www.w3.org/2000/svg"
   xmlns:xlink="http://www.w3.org/1999/xlink"
   xmlns:sodipodi="http://sodipodi.sourceforge.net/DTD/sodipodi-0.dtd"
   xmlns:inkscape="http://www.inkscape.org/namespaces/inkscape"
   id="svg1"
   sodipodi:docname="btn-f-round-green.svg"
   viewBox="0 0 128 128"
   sodipodi:version="0.32"
   version="1.1"
   inkscape:version="0.91 r13725"
   width="128"
   height="128">
  <title
     id="title4144">Round Green F Button</title>
  <defs
     id="defs3">
    <linearGradient
       id="linearGradient1697">
      <stop
         id="stop1698"
         style="stop-color:#69db0e"
         offset="0" />
      <stop
         id="stop1699"
         style="stop-color:#397607"
         offset="1" />
    </linearGradient>
    <linearGradient
       id="linearGradient1076"
       y2="466.28"
       xlink:href="#linearGradient1697"
       gradientUnits="userSpaceOnUse"
       x2="520.57001"
       y1="506.29001"
       x1="520.57001"
       inkscape:collect="always"
       gradientTransform="matrix(2.9814594,0,0,2.9814594,-1357.1393,-1248.7306)" />
    <linearGradient
       id="linearGradient1077"
       y2="505.07999"
       xlink:href="#linearGradient1697"
       gradientUnits="userSpaceOnUse"
       x2="522.94"
       y1="469.5"
       x1="522.94"
       inkscape:collect="always"
       gradientTransform="matrix(2.9814594,0,0,2.9814594,-1357.1393,-1248.7306)" />
    <linearGradient
       id="linearGradient1078"
       y2="463.47"
       gradientUnits="userSpaceOnUse"
       y1="183.48"
       gradientTransform="matrix(0.50570774,0,0,0.20943636,94.205806,106.74449)"
       x2="214.59"
       x1="213.83"
       inkscape:collect="always">
      <stop
         id="stop1703"
         style="stop-color:#ffffff;stop-opacity:.69072"
         offset="0" />
      <stop
         id="stop1704"
         style="stop-color:#ffffff;stop-opacity:0"
         offset="1" />
    </linearGradient>
  </defs>
  <sodipodi:namedview
     id="base"
     bordercolor="#666666"
     inkscape:pageshadow="2"
     inkscape:window-y="0"
     pagecolor="#ffffff"
     inkscape:window-maximized="1"
     inkscape:window-width="1600"
     inkscape:zoom="3.6203867"
     inkscape:window-x="1366"
     showgrid="false"
     borderopacity="1.0"
     inkscape:current-layer="layer1"
     inkscape:cx="46.205426"
     inkscape:cy="79.151303"
     inkscape:window-height="949"
     inkscape:pageopacity="0.0"
     fit-margin-top="0"
     fit-margin-left="0"
     fit-margin-right="0"
     fit-margin-bottom="0" />
  <g
     id="layer1"
     inkscape:label="Layer 1"
     inkscape:groupmode="layer"
     transform="translate(-139.00648,-139.42574)">
    <g
       id="g4174">
      <circle
         id="path1070"
         style="fill:url(#linearGradient1076);stroke:url(#linearGradient1077);stroke-width:4.06820154;stroke-linecap:round;stroke-linejoin:round"
         cx="203.00648"
         cy="203.42574"
         r="61.9659" />
      <g
         id="flowRoot4780-3"
         style="font-style:normal;font-variant:normal;font-weight:bold;font-stretch:normal;font-size:128.36198425px;line-height:125%;font-family:'Droid Serif';-inkscape-font-specification:'Droid Serif Bold';letter-spacing:0px;word-spacing:0px;display:inline;fill:#ffffff;fill-opacity:1;stroke:#000000;stroke-width:4;stroke-linecap:butt;stroke-linejoin:miter;stroke-miterlimit:4;stroke-dasharray:none;stroke-opacity:1"
         transform="translate(171.23594,152.06823)">
        <path
           id="path4172"
           style="font-style:normal;font-variant:normal;font-weight:bold;font-stretch:normal;font-family:'Droid Serif';-inkscape-font-specification:'Droid Serif Bold';fill:#ffffff;fill-opacity:1;stroke:#000000;stroke-width:4;stroke-miterlimit:4;stroke-dasharray:none;stroke-opacity:1"
           d="m 1.9990808,100.71545 0,-6.831767 2.8204537,0 q 1.3788885,0 2.9458073,-0.250707 1.6295955,-0.313384 2.9458072,-1.190859 1.378889,-0.877474 2.256363,-2.50707 0.940151,-1.629595 0.940151,-4.387372 l 0,-44.876553 -11.4071682,0 0,-8.774745 11.4071682,0 0,-4.763433 q 0,-5.954291 1.504242,-10.592371 1.566919,-4.700756 4.763433,-7.8972705 3.259191,-3.259191 8.210655,-4.9514633 4.951463,-1.6922722 11.720552,-1.6922722 6.204998,0 10.341664,0.752121 4.136665,0.6894442 6.581058,2.005656 2.444394,1.253535 3.447222,2.9458072 1.065504,1.6922723 1.065504,3.6979288 0,4.324695 -3.948635,6.330351 -3.885958,2.005656 -11.845906,2.005656 0,-1.566918 -0.313383,-3.384544 -0.313384,-1.817626 -1.065505,-3.384545 -0.752121,-1.566918 -2.005656,-2.569747 -1.190858,-1.0655043 -3.008484,-1.0655043 -1.566919,0 -2.6951,0.8774743 -1.128182,0.814798 -1.880303,2.695101 -0.689444,1.817625 -1.002828,4.763433 -0.313384,2.945807 -0.313384,7.207826 l 0,7.019796 17.674844,0 0,8.774745 -17.674844,0 0,44.876553 q 0,2.757777 0.877475,4.387372 0.940151,1.629596 2.256363,2.50707 1.378888,0.877475 2.945807,1.190859 1.629596,0.250707 3.008484,0.250707 l 6.016968,0 0,6.831767 -46.5688252,0 z" />
      </g>
      <path
         id="path1713"
         inkscape:connector-curvature="0"
         sodipodi:nodetypes="cccccc"
         style="opacity:0.9;fill:url(#linearGradient1078);fill-rule:evenodd"
         d="m 248.0068,187.0934 c 14.43996,-0.31568 -4.03551,-40.0817 -44.15627,-40.29324 -43.79177,-0.2213 -52.75125,36.11129 -45.79651,36.77519 0,0 11.99913,1.64675 23.41246,4.8361 18.37783,5.18433 40.85951,-4.25355 49.71811,-5.62693 9.87397,-1.52633 15.41629,5.01184 16.82221,4.30888 z" />
    </g>
  </g>
  <metadata
     id="metadata17">
    <rdf:RDF>
      <cc:Work>
        <dc:format>image/svg+xml</dc:format>
        <dc:type
           rdf:resource="http://purl.org/dc/dcmitype/StillImage" />
        <cc:license
           rdf:resource="http://creativecommons.org/publicdomain/zero/1.0/" />
        <dc:publisher>
          <cc:Agent
             rdf:about="http://openclipart.org/">
            <dc:title>OpenClipart Library</dc:title>
          </cc:Agent>
        </dc:publisher>
        <dc:title>Round Green F Button</dc:title>
        <dc:creator>
          <cc:Agent>
            <dc:title>Benji Park/Jordan Irwin</dc:title>
          </cc:Agent>
        </dc:creator>
        <dc:source>https://openclipart.org/detail/26193/button-green</dc:source>
      </cc:Work>
      <cc:License
         rdf:about="http://creativecommons.org/publicdomain/zero/1.0/">
        <cc:permits
           rdf:resource="http://creativecommons.org/ns#Reproduction" />
        <cc:permits
           rdf:resource="http://creativecommons.org/ns#Distribution" />
        <cc:permits
           rdf:resource="http://creativecommons.org/ns#DerivativeWorks" />
      </cc:License>
    </rdf:RDF>
  </metadata>
</svg>
