<?xml version="1.0" encoding="UTF-8" standalone="no"?>
<!-- Created with Inkscape (http://www.inkscape.org/) -->

<svg
   xmlns:dc="http://purl.org/dc/elements/1.1/"
   xmlns:cc="http://creativecommons.org/ns#"
   xmlns:rdf="http://www.w3.org/1999/02/22-rdf-syntax-ns#"
   xmlns:svg="http://www.w3.org/2000/svg"
   xmlns="http://www.w3.org/2000/svg"
   xmlns:xlink="http://www.w3.org/1999/xlink"
   xmlns:sodipodi="http://sodipodi.sourceforge.net/DTD/sodipodi-0.dtd"
   xmlns:inkscape="http://www.inkscape.org/namespaces/inkscape"
   id="svg1"
   sodipodi:docname="btn-refresh.svg"
   viewBox="0 0 128 128"
   sodipodi:version="0.32"
   version="1.1"
   inkscape:version="0.91 r13725"
   width="128"
   height="128">
  <title
     id="title4225">Refresh Button</title>
  <defs
     id="defs3">
    <linearGradient
       id="linearGradient1697">
      <stop
         id="stop1698"
         style="stop-color:#0e56db"
         offset="0" />
      <stop
         id="stop1699"
         style="stop-color:#071176"
         offset="1" />
    </linearGradient>
    <linearGradient
       id="linearGradient1076"
       y2="466.28"
       xlink:href="#linearGradient1697"
       gradientUnits="userSpaceOnUse"
       x2="520.57001"
       y1="506.29001"
       x1="520.57001"
       inkscape:collect="always"
       gradientTransform="matrix(2.9814595,0,0,2.9814595,-1357.1494,-1248.7817)" />
    <linearGradient
       id="linearGradient1077"
       y2="505.07999"
       xlink:href="#linearGradient1697"
       gradientUnits="userSpaceOnUse"
       x2="522.94"
       y1="469.5"
       x1="522.94"
       inkscape:collect="always"
       gradientTransform="matrix(2.9814595,0,0,2.9814595,-1357.1494,-1248.7817)" />
    <linearGradient
       id="linearGradient1078"
       y2="463.47"
       gradientUnits="userSpaceOnUse"
       y1="183.48"
       gradientTransform="matrix(0.50570776,0,0,0.20943637,94.199064,106.71009)"
       x2="214.59"
       x1="213.83"
       inkscape:collect="always">
      <stop
         id="stop1703"
         style="stop-color:#ffffff;stop-opacity:.69072"
         offset="0" />
      <stop
         id="stop1704"
         style="stop-color:#ffffff;stop-opacity:0"
         offset="1" />
    </linearGradient>
  </defs>
  <sodipodi:namedview
     id="base"
     bordercolor="#666666"
     inkscape:pageshadow="2"
     inkscape:window-y="0"
     pagecolor="#ffffff"
     inkscape:window-maximized="1"
     inkscape:window-width="1600"
     inkscape:zoom="4"
     inkscape:window-x="1366"
     showgrid="false"
     borderopacity="1.0"
     inkscape:current-layer="layer1"
     inkscape:cx="30.875"
     inkscape:cy="75.071297"
     inkscape:window-height="949"
     inkscape:pageopacity="0.0"
     fit-margin-top="0"
     fit-margin-left="0"
     fit-margin-right="0"
     fit-margin-bottom="0" />
  <g
     id="layer1"
     inkscape:label="Main"
     inkscape:groupmode="layer"
     transform="translate(-138.99649,-139.37474)"
     style="display:inline">
    <circle
       r="61.9659"
       cy="203.37474"
       cx="202.99649"
       id="path1070"
       style="fill:url(#linearGradient1076);stroke:url(#linearGradient1077);stroke-width:4.06820154;stroke-linecap:round;stroke-linejoin:round"
       inkscape:label="Background" />
    <g
       id="g3792"
       style="fill:#bb1e00;fill-opacity:1;image-rendering:auto"
       transform="matrix(2,0,0,2,-1408.4321,-1592.7782)">
      <g
         id="g3636"
         style="fill:#bb1e00;fill-opacity:1">
        <g
           id="g3624"
           style="fill:#bb1e00;fill-opacity:1" />
        <g
           id="g3632"
           style="fill:#bb1e00;fill-opacity:1" />
      </g>
    </g>
    <rect
       y="139.37474"
       x="138.99649"
       height="128"
       width="128"
       id="rect3454"
       style="display:inline;fill:none;fill-opacity:1;image-rendering:auto" />
    <rect
       y="139.37474"
       x="138.99649"
       height="128"
       width="128"
       id="rect3494"
       style="display:inline;fill:none;fill-opacity:1;image-rendering:auto" />
    <rect
       style="display:inline;fill:none;fill-opacity:1;image-rendering:auto"
       id="rect4191"
       width="128"
       height="128"
       x="138.99649"
       y="139.37474" />
    <rect
       y="139.37474"
       x="138.99649"
       height="128"
       width="128"
       id="rect3470"
       style="display:inline;fill:none;fill-opacity:1;image-rendering:auto" />
    <path
       style="fill:#ffffff;fill-opacity:1;stroke:#000000;stroke-width:5.69999981;stroke-miterlimit:4;stroke-dasharray:none;stroke-opacity:1"
       inkscape:connector-curvature="0"
       d="m 189.64029,156.77077 c -0.2771,0.005 -0.56161,0.0226 -0.9038,0.0502 -0.13168,0.0106 -0.20507,0.0359 -0.30127,0.0502 -0.0345,0.002 -0.12027,0.0127 -0.22596,0.0251 -0.0292,0.003 -0.0927,0.0206 -0.12552,0.0251 -0.20465,0.0282 -0.4499,0.0521 -0.77828,0.17574 -0.004,0.001 -0.48696,0.19842 -0.90381,0.477 -0.62849,0.42003 -1.00897,0.92387 -1.28039,1.35571 -0.31189,0.49625 -0.59698,1.10449 -0.67785,1.88293 -0.0287,0.27635 -0.0333,0.50402 -0.0251,0.67786 0.004,0.0774 0.0181,0.13177 0.0251,0.20084 8.8e-4,0.008 -9.7e-4,0.0165 0,0.0251 0.004,0.0393 0.006,0.0596 0.0251,0.17574 0.005,0.029 0.025,0.17549 0.0251,0.17574 l 0.0753,0.27617 c 0,0 0.0244,0.0241 0.0251,0.0251 0.008,0.0287 0.0165,0.0733 0.0251,0.10042 l -0.0251,0 c -0.0142,-0.0537 0.053,0.14755 0.0502,0.15063 -0.009,0.01 -0.0101,0.0611 0.15063,0.47701 0.17555,0.45423 0.30334,0.66983 0.37659,0.82849 0.25424,0.55072 0.57067,1.2476 0.97912,2.05867 0.81137,1.61116 2.96247,5.7241 2.96247,5.7241 l 8.93764,16.84594 c 0,0 2.17574,4.14406 3.0629,5.74921 0.45742,0.82762 1.12976,1.93314 1.12976,1.93314 0.37532,0.67731 0.8654,1.3173 1.38081,1.83272 0,0 0.53412,0.36048 0.77828,0.52721 0.55078,0.29273 1.21666,0.50128 1.90803,0.52722 0.67212,0.0252 1.45857,-0.0744 2.25952,-0.50211 0.34996,-0.18688 0.52325,-0.34327 0.70296,-0.50211 0.0304,-0.0269 0.0966,-0.0488 0.12553,-0.0753 0.0666,-0.0611 0.16686,-0.15886 0.25105,-0.25106 0.0421,-0.0461 0.0563,-0.0399 0.12553,-0.12553 0.0198,-0.0211 0.0276,-6.5e-4 0.0502,-0.0251 0.30248,-0.32759 0.43052,-0.54097 0.47701,-0.60254 0.23667,-0.31344 0.43656,-0.59514 0.67785,-0.95401 0.53106,-0.78984 1.17798,-1.82401 1.88293,-2.93737 0.69121,-1.09166 1.45253,-2.348 2.2093,-3.56502 5.18416,3.74005 8.66148,9.58557 8.66148,16.46936 0,11.5227 -9.23974,20.76243 -20.76243,20.76243 -11.5227,0 -20.76243,-9.23974 -20.76243,-20.76243 0,-4.73308 1.62488,-9.00576 4.34329,-12.55286 0.62242,-0.81274 1.0753,-1.93773 0.8787,-3.31396 -0.1796,-1.25726 -0.82231,-2.24315 -1.7323,-2.91226 l -5.97515,-4.39351 -5.54837,-4.14245 -0.0251,0 c -1.59325,-1.16977 -3.68879,-0.98064 -5.17178,0.10043 -0.37228,0.20663 -0.69724,0.48884 -0.95401,0.82849 -5.52896,7.32553 -8.98785,16.43144 -8.98785,26.38611 0,24.21461 19.7204,43.93501 43.93501,43.93501 24.21445,0 43.98523,-19.71421 43.98523,-43.93501 0,-15.14165 -7.89483,-28.28041 -19.58247,-36.10203 0.45874,-0.72083 0.97635,-1.52921 1.35571,-2.13398 0.4919,-0.78418 0.94038,-1.46226 1.3055,-2.08378 0.19277,-0.32814 0.30554,-0.61378 0.40169,-0.80338 2e-5,-2e-5 0.0215,-0.0194 0.0251,-0.0251 0.0176,-0.0278 0.0573,-0.1198 0.0753,-0.15064 0.0434,-0.0743 0.058,-0.0918 0.0753,-0.12553 0.0346,-0.0675 0.0608,-0.11862 0.0753,-0.15063 0.0204,-0.0449 0.0113,-0.0673 0.0251,-0.10042 0.0263,-0.0621 0.0259,-0.0104 0.0502,-0.0753 0.011,-0.029 0.0139,-0.0691 0.0251,-0.10043 0.0246,-0.0685 0.0515,-0.17129 0.0753,-0.25105 0.0406,-0.11796 0.0707,-0.22762 0.10042,-0.35148 0.004,-0.0214 0.0209,-0.028 0.0251,-0.0502 0.0133,-0.0999 0.0217,-0.2005 0.0251,-0.30127 1.4e-4,-0.0167 1.4e-4,-0.0335 0,-0.0502 0.0275,-0.18114 0.079,-0.32961 0.0753,-0.57743 -0.0101,-0.6833 -0.19611,-1.38182 -0.52722,-2.00846 -0.34222,-0.64773 -0.79237,-1.17427 -1.43102,-1.60677 -0.27194,-0.18415 -0.48072,-0.29161 -0.67786,-0.37658 -0.0986,-0.0425 -0.18005,-0.0781 -0.32637,-0.12553 -0.0307,-0.01 -0.0743,-0.0107 -0.12553,-0.0251 -0.009,-0.004 -0.0158,0.004 -0.0251,0 -0.10664,-0.0402 -0.11357,-0.063 -0.25106,-0.10043 -0.24422,-0.0666 -0.43843,-0.0814 -0.65275,-0.10042 -0.0531,-0.008 -0.27363,-0.0298 -0.40169,-0.0502 -0.16062,-0.0255 -0.2554,-0.0528 -0.50211,-0.0753 -0.60839,-0.0556 -1.35706,-0.099 -2.25952,-0.15063 -1.79155,-0.1024 -4.10626,-0.23347 -6.45217,-0.32638 -2.34647,-0.0929 -4.71723,-0.16784 -6.50238,-0.22595 -0.8815,-0.0287 -1.62681,-0.0582 -2.1842,-0.0753 -0.26801,-0.008 -0.50266,0.004 -0.65275,0 -0.075,-0.002 -0.11133,-0.024 -0.15063,-0.0251 -0.01,-2.7e-4 -0.0176,2.1e-4 -0.0251,0 -9e-5,0 -0.19018,4.4e-4 -0.20085,0 -0.15222,-0.006 -1.18705,-0.0569 -2.86205,-0.12553 -1.79249,-0.0734 -4.16116,-0.16923 -6.50238,-0.25105 -2.32065,-0.0811 -4.65272,-0.16908 -6.47728,-0.20085 -0.93041,-0.0162 -1.6933,-0.009 -2.25951,0 z"
       id="2"
       sodipodi:nodetypes="ccccccssscccccccccccssccscccsscccccssscssscsscccccssscsscccccccccccccscssccccccsssscccccssscc" />
    <rect
       y="139.37474"
       x="138.99649"
       height="128"
       width="128"
       id="rect3482"
       style="display:inline;fill:none;fill-opacity:1;image-rendering:auto" />
    <path
       id="path1713"
       style="opacity:0.9;fill:url(#linearGradient1078);fill-rule:evenodd"
       d="m 248.00006,187.05901 c 14.43996,-0.31568 -4.03551,-40.08171 -44.15627,-40.29325 -43.79177,-0.2213 -52.75125,36.11129 -45.79651,36.7752 0,0 11.99913,1.64675 23.41246,4.8361 18.37783,5.18433 40.85952,-4.25356 49.71811,-5.62693 9.87398,-1.52633 15.41629,5.01184 16.82221,4.30888 z"
       sodipodi:nodetypes="cccccc"
       inkscape:connector-curvature="0"
       inkscape:label="Shine">
      <title
         id="title3379">Shine</title>
    </path>
  </g>
  <metadata
     id="metadata16">
    <rdf:RDF>
      <cc:Work>
        <dc:format>image/svg+xml</dc:format>
        <dc:type
           rdf:resource="http://purl.org/dc/dcmitype/StillImage" />
        <cc:license
           rdf:resource="" />
        <dc:publisher>
          <cc:Agent
             rdf:about="http://openclipart.org/">
            <dc:title></dc:title>
          </cc:Agent>
        </dc:publisher>
        <dc:title>Refresh Button</dc:title>
        <dc:source></dc:source>
        <dc:description>Sources:
https://openclipart.org/detail/26191/button-blue
https://openclipart.org/detail/211882/matticonsviewrefresh</dc:description>
      </cc:Work>
    </rdf:RDF>
  </metadata>
</svg>
