<?xml version="1.0" encoding="UTF-8" standalone="no"?>
<!-- Created with Inkscape (http://www.inkscape.org/) -->

<svg
   xmlns:dc="http://purl.org/dc/elements/1.1/"
   xmlns:cc="http://creativecommons.org/ns#"
   xmlns:rdf="http://www.w3.org/1999/02/22-rdf-syntax-ns#"
   xmlns:svg="http://www.w3.org/2000/svg"
   xmlns="http://www.w3.org/2000/svg"
   xmlns:sodipodi="http://sodipodi.sourceforge.net/DTD/sodipodi-0.dtd"
   xmlns:inkscape="http://www.inkscape.org/namespaces/inkscape"
   id="svg249"
   inkscape:version="0.91 r13725"
   inkscape:export-filename="/home/jimmac/gfx/novell/pdes/trunk/docs/BIGmime-text.png"
   viewBox="0 0 128 128"
   sodipodi:version="0.32"
   inkscape:export-xdpi="240.00000"
   inkscape:output_extension="org.inkscape.output.svg.inkscape"
   inkscape:export-ydpi="240.00000"
   sodipodi:docname="executable-script.svg"
   version="1.1"
   width="128"
   height="128">
  <defs
     id="defs3">
    <radialGradient
       id="radialGradient15656"
       gradientUnits="userSpaceOnUse"
       cy="3.7560999"
       cx="8.8243999"
       gradientTransform="matrix(0.96827,0,0,1.0328,3.3536,0.64645)"
       r="37.751999"
       inkscape:collect="always">
      <stop
         id="stop270"
         style="stop-color:#a3a3a3"
         offset="0" />
      <stop
         id="stop271"
         style="stop-color:#4c4c4c"
         offset="1" />
    </radialGradient>
    <radialGradient
       id="radialGradient15658"
       gradientUnits="userSpaceOnUse"
       cy="35.737"
       cx="33.966999"
       gradientTransform="scale(0.96049,1.0411)"
       r="86.708"
       inkscape:collect="always">
      <stop
         id="stop260"
         style="stop-color:#fafafa"
         offset="0" />
      <stop
         id="stop261"
         style="stop-color:#bbbbbb"
         offset="1" />
    </radialGradient>
    <radialGradient
       id="radialGradient15668"
       gradientUnits="userSpaceOnUse"
       cy="7.2679"
       cx="8.1436005"
       gradientTransform="matrix(0.96827,0,0,1.0328,3.3536,0.64645)"
       r="38.159"
       inkscape:collect="always">
      <stop
         id="stop15664"
         style="stop-color:#ffffff"
         offset="0" />
      <stop
         id="stop15666"
         style="stop-color:#f8f8f8"
         offset="1" />
    </radialGradient>
    <radialGradient
       id="radialGradient2283"
       gradientUnits="userSpaceOnUse"
       cx="20.892"
       cy="114.57"
       r="5.256"
       gradientTransform="matrix(0.2297,0,0,0.2297,4.6135,3.9798)"
       inkscape:collect="always">
      <stop
         id="stop15566"
         style="stop-color:#F0F0F0"
         offset="0" />
      <stop
         id="stop15568"
         style="stop-color:#9a9a9a"
         offset="1" />
    </radialGradient>
    <radialGradient
       id="radialGradient2285"
       gradientUnits="userSpaceOnUse"
       cx="20.892"
       cy="64.568001"
       r="5.257"
       gradientTransform="matrix(0.2297,0,0,0.2297,4.6135,3.9798)"
       inkscape:collect="always">
      <stop
         id="stop15573"
         style="stop-color:#F0F0F0"
         offset="0" />
      <stop
         id="stop15575"
         style="stop-color:#9a9a9a"
         offset="1" />
    </radialGradient>
    <linearGradient
       id="linearGradient2193"
       y2="248.63"
       gradientUnits="userSpaceOnUse"
       x2="153"
       gradientTransform="matrix(0.20068,0,0,0.20068,25.333,3.1574)"
       y1="15.424"
       x1="99.777"
       inkscape:collect="always">
      <stop
         id="stop53300"
         style="stop-color:#464646"
         offset="0" />
      <stop
         id="stop53302"
         style="stop-color:#cdcdcd"
         offset="1" />
    </linearGradient>
    <linearGradient
       id="linearGradient3088"
       y2="43.317001"
       gradientUnits="userSpaceOnUse"
       x2="65.862999"
       y1="9.9125004"
       x1="44.592999"
       inkscape:collect="always">
      <stop
         id="stop3084"
         style="stop-color:#ffffff"
         offset="0" />
      <stop
         id="stop3086"
         style="stop-color:#ffffff;stop-opacity:0"
         offset="1" />
    </linearGradient>
  </defs>
  <sodipodi:namedview
     id="base"
     bordercolor="#666666"
     inkscape:window-x="1366"
     inkscape:window-y="0"
     pagecolor="#ffffff"
     inkscape:showpageshadow="false"
     inkscape:grid-bbox="true"
     inkscape:zoom="0.70710678"
     inkscape:pageshadow="2"
     showgrid="false"
     borderopacity="0.25490196"
     inkscape:current-layer="layer5"
     inkscape:cx="-321.07149"
     inkscape:cy="132.71394"
     inkscape:window-width="1600"
     inkscape:pageopacity="0.0"
     inkscape:window-height="949"
     inkscape:document-units="px"
     fit-margin-top="0"
     fit-margin-left="0"
     fit-margin-right="0"
     fit-margin-bottom="0"
     inkscape:window-maximized="1" />
  <g
     id="layer6"
     inkscape:label="Shadow"
     inkscape:groupmode="layer"
     transform="translate(32.400083,38.329279)" />
  <g
     id="layer1"
     inkscape:label="Base"
     inkscape:groupmode="layer"
     transform="translate(32.400083,38.329279)" />
  <g
     id="layer5"
     inkscape:label="Text"
     inkscape:groupmode="layer"
     transform="translate(32.400083,38.329279)">
    <g
       id="g4208"
       transform="matrix(2.8413732,0,0,2.8413732,-40.570679,-47.269377)">
      <g
         id="g4185">
        <rect
           id="rect15391"
           style="color:#000000;display:block;fill:url(#radialGradient15658);stroke:url(#radialGradient15656);stroke-linecap:round;stroke-linejoin:round"
           ry="1.149"
           height="40.919998"
           width="34.875"
           y="3.6464"
           x="6.6036" />
        <rect
           id="rect15660"
           style="color:#000000;display:block;fill:none;stroke:url(#radialGradient15668);stroke-linecap:round;stroke-linejoin:round"
           rx="0.14905"
           ry="0.14905"
           height="38.945999"
           width="32.776001"
           y="4.5839"
           x="7.6661" />
        <g
           id="g2270"
           transform="translate(0.64645,-0.037989)">
          <g
             id="g1440"
             style="fill:#ffffff;stroke:#000000"
             transform="matrix(0.2297,0,0,0.2297,4.9671,4.245)">
            <path
               id="path1448"
               d="m 23.428,113.07 c 0,1.97 -1.6,3.57 -3.573,3.57 -1.974,0 -3.573,-1.6 -3.573,-3.57 0,-1.97 1.6,-3.57 3.573,-3.57 1.973,0 3.573,1.6 3.573,3.57 z"
               inkscape:connector-curvature="0" />
            <path
               id="path1456"
               d="m 23.428,63.07 c 0,1.973 -1.6,3.573 -3.573,3.573 -1.974,0 -3.573,-1.6 -3.573,-3.573 0,-1.974 1.6,-3.573 3.573,-3.573 1.973,0 3.573,1.6 3.573,3.573 z"
               inkscape:connector-curvature="0" />
          </g>
          <path
             id="path15570"
             style="fill:url(#radialGradient2283)"
             d="m 9.995,29.952 c 0,0.454 -0.3675,0.821 -0.8207,0.821 -0.4535,0 -0.8207,-0.368 -0.8207,-0.821 0,-0.453 0.3675,-0.82 0.8207,-0.82 0.4532,0 0.8207,0.367 0.8207,0.82 z"
             inkscape:connector-curvature="0" />
          <path
             id="path15577"
             style="fill:url(#radialGradient2285)"
             d="m 9.995,18.467 c 0,0.453 -0.3675,0.821 -0.8207,0.821 -0.4535,0 -0.8207,-0.368 -0.8207,-0.821 0,-0.453 0.3675,-0.821 0.8207,-0.821 0.4532,0 0.8207,0.368 0.8207,0.821 z"
             inkscape:connector-curvature="0" />
        </g>
        <path
           id="path15672"
           sodipodi:nodetypes="cc"
           style="fill:none;stroke:#000000;stroke-width:0.98855001;stroke-opacity:0.01754402"
           d="m 11.506,5.4943 0,37.907"
           inkscape:connector-curvature="0" />
        <path
           id="path15674"
           sodipodi:nodetypes="cc"
           style="fill:none;stroke:#ffffff;stroke-opacity:0.20468002"
           d="m 12.5,5.0205 0,38.018"
           inkscape:connector-curvature="0" />
      </g>
      <g
         transform="matrix(0.70383,0,0,0.70383,-1.9248,14.33)"
         id="g2186">
        <path
           d="M 50.205,47.405 30.294,27.494 50.205,7.583 70.115,27.494 50.205,47.405 Z"
           style="fill:url(#linearGradient2193);stroke:#3e3e3e;stroke-width:1.42079997;stroke-linecap:round;stroke-linejoin:round"
           id="path53304"
           inkscape:connector-curvature="0" />
        <path
           d="m 34.845,31.353 0.738,-1.024 c 0.637,0.269 1.301,0.485 1.986,0.645 l -0.006,1.577 c 0.428,0.088 0.863,0.156 1.304,0.204 l 0.482,-1.502 c 0.344,0.029 0.692,0.045 1.044,0.045 0.351,0 0.699,-0.016 1.043,-0.045 l 0.482,1.502 c 0.441,-0.048 0.876,-0.116 1.304,-0.204 l -0.006,-1.577 c 0.685,-0.16 1.349,-0.376 1.986,-0.645 l 0.922,1.28 c 0.403,-0.182 0.795,-0.383 1.175,-0.601 L 46.806,29.51 c 0.598,-0.362 1.162,-0.773 1.688,-1.228 l 1.272,0.932 c 0.326,-0.297 0.637,-0.608 0.934,-0.934 l -0.932,-1.272 c 0.455,-0.526 0.866,-1.09 1.228,-1.688 l 1.498,0.493 c 0.218,-0.38 0.419,-0.773 0.601,-1.175 l -1.28,-0.922 C 52.084,23.079 52.3,22.415 52.46,21.73 l 1.577,0.005 c 0.088,-0.427 0.156,-0.863 0.204,-1.304 L 52.74,19.949 c 0.028,-0.343 0.044,-0.691 0.044,-1.043 0,-0.351 -0.016,-0.699 -0.044,-1.043 l 1.501,-0.482 C 54.193,16.94 54.125,16.505 54.037,16.077 l -1.577,0.006 c -0.16,-0.686 -0.376,-1.35 -0.644,-1.986 l 1.279,-0.922 c -0.182,-0.403 -0.383,-0.795 -0.6,-1.176 l -1.499,0.493 C 50.634,11.895 50.223,11.331 49.769,10.805 L 50.7,9.533 C 50.422,9.2271 50.129,8.935 49.825,8.6549 l -18.839,18.839 1.007,1.007 0.298,-0.219 c 0.526,0.455 1.09,0.866 1.688,1.228 l -0.242,0.735 1.108,1.109 0,-10e-4 z"
           style="opacity:0.5;fill:#ffffff"
           id="path53361"
           inkscape:connector-curvature="0" />
        <path
           d="m 54.368,36.399 c 0,-6.484 4.234,-11.979 10.087,-13.874 l -2.227,-2.227 c -0.017,0.007 -0.034,0.013 -0.051,0.02 l -0.181,-0.252 -1.412,-1.412 c -0.463,0.219 -0.917,0.455 -1.359,0.708 l 0.694,2.109 c -0.842,0.51 -1.636,1.089 -2.376,1.729 l -1.791,-1.312 c -0.459,0.418 -0.897,0.856 -1.315,1.315 l 1.312,1.791 c -0.64,0.74 -1.219,1.534 -1.729,2.376 l -2.109,-0.695 c -0.307,0.537 -0.589,1.089 -0.845,1.655 l 1.801,1.298 c -0.378,0.897 -0.683,1.831 -0.908,2.797 l -2.22,-0.009 c -0.124,0.603 -0.22,1.216 -0.287,1.837 l 2.114,0.678 c -0.04,0.484 -0.062,0.974 -0.062,1.468 0,0.495 0.022,0.985 0.062,1.469 l -2.114,0.678 c 0.067,0.621 0.163,1.234 0.287,1.836 l 2.22,-0.008 c 0.225,0.965 0.53,1.9 0.908,2.796 l -1.801,1.299 c 0.142,0.315 0.294,0.625 0.452,0.93 l 3.804,-3.803 C 54.706,39.981 54.368,38.23 54.368,36.399 Z"
           style="opacity:0.5;fill:#ffffff"
           id="path53363"
           inkscape:connector-curvature="0" />
        <path
           d="M 50.205,45.707 31.992,27.494 50.205,9.281 68.418,27.494 50.205,45.707 Z"
           style="opacity:0.52046982;fill:none;stroke:url(#linearGradient3088);stroke-width:1.42079997"
           id="path3078"
           inkscape:connector-curvature="0" />
      </g>
    </g>
  </g>
  <metadata
     id="metadata57">
    <rdf:RDF>
      <cc:Work>
        <dc:format>image/svg+xml</dc:format>
        <dc:type
           rdf:resource="http://purl.org/dc/dcmitype/StillImage" />
        <cc:license
           rdf:resource="http://creativecommons.org/publicdomain/zero/1.0/" />
        <dc:publisher>
          <cc:Agent
             rdf:about="http://openclipart.org/">
            <dc:title>Openclipart</dc:title>
          </cc:Agent>
        </dc:publisher>
        <dc:title></dc:title>
        <dc:date>2010-04-02T20:09:25</dc:date>
        <dc:description>An icon from Tango Project. Since version 0.8.90 Tango Project icons are Public Domain: </dc:description>
        <dc:source>https://openclipart.org/detail/36175/tango-text-x-script-by-warszawianka</dc:source>
        <dc:creator>
          <cc:Agent>
            <dc:title>warszawianka</dc:title>
          </cc:Agent>
        </dc:creator>
        <dc:subject>
          <rdf:Bag>
            <rdf:li>externalsource</rdf:li>
            <rdf:li>icon</rdf:li>
            <rdf:li>tango</rdf:li>
          </rdf:Bag>
        </dc:subject>
      </cc:Work>
      <cc:License
         rdf:about="http://creativecommons.org/publicdomain/zero/1.0/">
        <cc:permits
           rdf:resource="http://creativecommons.org/ns#Reproduction" />
        <cc:permits
           rdf:resource="http://creativecommons.org/ns#Distribution" />
        <cc:permits
           rdf:resource="http://creativecommons.org/ns#DerivativeWorks" />
      </cc:License>
    </rdf:RDF>
  </metadata>
</svg>
