<?xml version="1.0" encoding="UTF-8" standalone="no"?>
<!-- Generator: Adobe Illustrator 9.0, SVG Export Plug-In  -->

<svg
   xmlns:dc="http://purl.org/dc/elements/1.1/"
   xmlns:cc="http://creativecommons.org/ns#"
   xmlns:rdf="http://www.w3.org/1999/02/22-rdf-syntax-ns#"
   xmlns:svg="http://www.w3.org/2000/svg"
   xmlns="http://www.w3.org/2000/svg"
   xmlns:sodipodi="http://sodipodi.sourceforge.net/DTD/sodipodi-0.dtd"
   xmlns:inkscape="http://www.inkscape.org/namespaces/inkscape"
   id="svg16168"
   sodipodi:docname="image-generic.svg"
   xml:space="preserve"
   viewBox="0 0 128 128"
   sodipodi:version="0.32"
   inkscape:output_extension="org.inkscape.output.svg.inkscape"
   inkscape:version="0.91 r13725"
   version="1.1"
   width="128"
   height="128"><defs
     id="defs16234"><linearGradient
       id="linearGradient7671"
       y2="7.1090999"
       gradientUnits="userSpaceOnUse"
       x2="21.933001"
       gradientTransform="matrix(1.099,0,0,-0.79776,-1.9539,37.324)"
       y1="24.627001"
       x1="21.933001"
       inkscape:collect="always"><stop
         id="stop7650"
         style="stop-color:#8595bc"
         offset="0" /><stop
         id="stop7652"
         style="stop-color:#041a3b"
         offset="1" /></linearGradient><linearGradient
       id="linearGradient7673"
       y2="7.1090999"
       gradientUnits="userSpaceOnUse"
       x2="21.933001"
       gradientTransform="matrix(1.099,0,0,1.1067,-1.9539,-4.9225)"
       y1="24.627001"
       x1="21.933001"
       inkscape:collect="always"><stop
         id="stop16199"
         style="stop-color:#D0D6E5;stroke-width:1.2167"
         offset="0" /><stop
         id="stop16201"
         style="stop-color:#093A80;stroke-width:1.2167"
         offset="1" /></linearGradient><linearGradient
       id="linearGradient8148"
       y2="36.033001"
       gradientUnits="userSpaceOnUse"
       x2="31.080999"
       gradientTransform="matrix(1.434,0,0,0.99009,52.322,2.8389)"
       y1="3.7319"
       x1="12.487"
       inkscape:collect="always"><stop
         id="stop16177"
         style="stop-color:#D2D2D2;stroke-width:1.2167"
         offset="0" /><stop
         id="stop16179"
         style="stop-color:#EDEDED;stroke-width:1.2167"
         offset="1" /></linearGradient><radialGradient
       id="radialGradient8161"
       gradientUnits="userSpaceOnUse"
       cy="10.405"
       cx="12.7"
       gradientTransform="matrix(1.7105,0,0,1.1248,-11.568,1.8026)"
       r="19.969"
       inkscape:collect="always"><stop
         id="stop8157"
         style="stop-color:#ffffff"
         offset="0" /><stop
         id="stop8159"
         style="stop-color:#ffffff;stop-opacity:0"
         offset="1" /></radialGradient><linearGradient
       id="linearGradient8166"
       y2="38.07"
       gradientUnits="userSpaceOnUse"
       x2="34.169998"
       gradientTransform="translate(5.1476,-3.4098)"
       y1="36.921001"
       x1="33.396"
       inkscape:collect="always"><stop
         id="stop2253"
         style="stop-color:#ffffff"
         offset="0" /><stop
         id="stop2255"
         style="stop-color:#ffffff;stop-opacity:0"
         offset="1" /></linearGradient><linearGradient
       id="linearGradient8169"
       y2="37.771"
       gradientUnits="userSpaceOnUse"
       x2="33.665001"
       gradientTransform="translate(5.1476,-3.0348)"
       y1="40.458"
       x1="35.997002"
       inkscape:collect="always"><stop
         id="stop2226"
         style="stop-color:#7c7c7c"
         offset="0" /><stop
         id="stop2228"
         style="stop-color:#b8b8b8"
         offset="1" /></linearGradient><linearGradient
       id="linearGradient8177"
       y2="39.985001"
       gradientUnits="userSpaceOnUse"
       x2="45"
       y1="31"
       x1="42.188"
       inkscape:collect="always"><stop
         id="stop8173"
         style="stop-color:#bbbdba"
         offset="0" /><stop
         id="stop8175"
         style="stop-color:#70746e"
         offset="1" /></linearGradient></defs><sodipodi:namedview
     id="base"
     bordercolor="#666666"
     inkscape:pageshadow="2"
     inkscape:window-y="0"
     pagecolor="#ffffff"
     inkscape:showpageshadow="false"
     inkscape:zoom="2.8284271"
     inkscape:window-x="1366"
     borderopacity="1"
     inkscape:current-layer="svg16168"
     inkscape:cx="13.076773"
     inkscape:cy="8.9828819"
     inkscape:window-height="949"
     showgrid="false"
     inkscape:pageopacity="0.0"
     inkscape:window-width="1600"
     showguides="true"
     fit-margin-top="0"
     fit-margin-left="0"
     fit-margin-right="0"
     fit-margin-bottom="0"
     inkscape:window-maximized="1" /><g
     id="g4243"
     transform="matrix(2.9149075,0,0,2.9149075,-3.1848285,-2.9764126)"><path
       d="m 2.7178,6.4548 40.662,0 c 0.623,0 1.125,0.5017 1.125,1.125 l 0,23.901 c 0,0.623 -8.457,8.019 -9.08,8.019 l -32.707,0 c -0.6235,0 -1.1252,-0.502 -1.1252,-1.125 l 0,-30.795 c 0,-0.6235 0.5017,-1.1252 1.125,-1.1252 z"
       style="color:#000000;fill:url(#linearGradient8148);stroke:#bbbfbb"
       sodipodi:nodetypes="ccccccccc"
       id="rect7603"
       inkscape:connector-curvature="0" /><g
       transform="matrix(1.0548,0,0,1.05,-0.81465,4.485)"
       id="g7654"><path
         d="m 5.5127,30 34.13,0 0,-10.373 -34.13,0 L 5.5124,30 Z"
         style="fill:url(#linearGradient7671)"
         id="path7644"
         inkscape:connector-curvature="0" /><path
         d="m 5.5127,5.2378 34.13,0 0,14.389 -34.13,0 -3e-4,-14.389 z"
         style="fill:url(#linearGradient7673)"
         id="path16203"
         inkscape:connector-curvature="0" /><g
         transform="matrix(1.1892,0,0,1.1892,-3.5254,-6.5354)"
         style="stroke:#000000;stroke-width:1.15610003"
         id="g16205"><g
           id="g16207"><path
             d="m 18.4,15.4 c 0,2.2 -1.8,4.1 -4.1,4.1 -2.2,0 -4.1,-1.8 -4.1,-4.1 0,-2.2 1.8,-4.1 4.1,-4.1 2.2,0 4.1,1.8 4.1,4.1 z"
             style="opacity:0.05;fill:#e8f52f"
             id="path16209"
             inkscape:connector-curvature="0" /><path
             d="m 18,15.4 c 0,2 -1.6,3.7 -3.7,3.7 -2,0 -3.7,-1.6 -3.7,-3.7 0,-2 1.6,-3.7 3.7,-3.7 2,0 3.7,1.6 3.7,3.7 z"
             style="opacity:0.2083;fill:#ecf751"
             id="path16211"
             inkscape:connector-curvature="0" /><path
             d="m 17.6,15.4 c 0,1.8 -1.5,3.3 -3.3,3.3 -1.8,0 -3.3,-1.5 -3.3,-3.3 0,-1.8 1.5,-3.3 3.3,-3.3 1.8,0 3.3,1.5 3.3,3.3 z"
             style="opacity:0.3667;fill:#f0f972"
             id="path16213"
             inkscape:connector-curvature="0" /><path
             d="m 17.2,15.4 c 0,1.6 -1.3,2.9 -2.9,2.9 -1.6,0 -2.9,-1.3 -2.9,-2.9 0,-1.6 1.3,-2.9 2.9,-2.9 1.6,0 2.9,1.3 2.9,2.9 z"
             style="opacity:0.525;fill:#f4fa95"
             id="path16215"
             inkscape:connector-curvature="0" /><path
             d="m 16.8,15.4 c 0,1.4 -1.1,2.5 -2.5,2.5 -1.4,0 -2.5,-1.1 -2.5,-2.5 0,-1.4 1.1,-2.5 2.5,-2.5 1.4,0 2.5,1.1 2.5,2.5 z"
             style="opacity:0.6833;fill:#f7fcb7"
             id="path16217"
             inkscape:connector-curvature="0" /><path
             d="m 16.4,15.4 c 0,1.2 -1,2.1 -2.1,2.1 -1.1,0 -2.1,-1 -2.1,-2.1 0,-1.1 1,-2.1 2.1,-2.1 1.1,0 2.1,1 2.1,2.1 z"
             style="opacity:0.8417;fill:#fbfddb"
             id="path16219"
             inkscape:connector-curvature="0" /><path
             d="m 16,15.4 c 0,1 -0.8,1.8 -1.8,1.8 -1,0 -1.8,-0.8 -1.8,-1.8 0,-1 0.8,-1.8 1.8,-1.8 1,0 1.8,0.8 1.8,1.8 z"
             style="fill:#ffffff"
             id="path16221"
             inkscape:connector-curvature="0" /></g></g><path
         d="m 25.016,21.649 8.681,0 1.665,0.476 -2.854,0 c 0,0 2.854,0.238 4.281,2.021 1.427,1.665 -1.665,3.687 -1.665,3.687 -0.119,-0.357 -0.832,-3.211 -2.259,-4.4 -1.071,-0.952 -2.26,-1.189 -2.26,-1.189 l -5.589,0 0,-0.476 0,-0.119 z"
         style="opacity:0.3"
         id="path16223"
         inkscape:connector-curvature="0" /><path
         d="m 30.724,22.363 -4.995,0 9.276,5.232 -4.281,-5.232 z"
         style="opacity:0.3"
         id="path16225"
         inkscape:connector-curvature="0" /><path
         d="m 25.016,21.768 8.681,0 1.308,-0.832 -2.854,0 c 0,0 2.616,-0.476 2.973,-3.449 0.357,-2.973 -4.043,-6.303 -4.043,-6.303 l 0,0.119 c 0.119,0.713 1.308,5.708 0.476,7.611 -0.357,1.665 -1.428,2.022 -1.428,2.022 l -5.47,0 0.238,0.832 0.119,0 z"
         style="fill:#515151"
         id="path16227"
         inkscape:connector-curvature="0" /><path
         d="m 30.248,20.46 -4.994,0 5.946,-9.038 -0.952,9.038 z"
         style="fill:#515151"
         id="path16229"
         inkscape:connector-curvature="0" /></g><path
       d="m 2.8042,7.4529 40.43,0 c 0.15,0 0.271,0.121 0.271,0.2714 l 0,23.699 c 0,0.946 -7.103,7.077 -7.254,7.077 l -33.447,0 c -0.1501,0 -0.2712,-0.121 -0.2712,-0.271 l 0,-30.505 c 0,-0.1501 0.1211,-0.2711 0.2714,-0.2711 z"
       style="color:#000000;fill:none;stroke:#ffffff"
       sodipodi:nodetypes="ccccccccc"
       id="rect7675"
       inkscape:connector-curvature="0" /><rect
       x="5.5"
       y="10.5"
       width="35.062"
       height="25.062"
       style="color:#000000;opacity:0.84658999;fill:none;stroke:#4f4f4f"
       id="rect8163" /><path
       d="m 35.207,39.469 c 2.03,0.33 9.588,-4.53 9.284,-8.498 -1.563,2.423 -4.758,1.287 -8.867,1.446 0,0 0.395,6.552 -0.417,7.052 z"
       style="color:#000000;fill:url(#linearGradient8169);fill-rule:evenodd;stroke:url(#linearGradient8177)"
       sodipodi:nodetypes="cccc"
       id="path2210"
       inkscape:connector-curvature="0" /><path
       d="m 36.657,37.277 c 1.37,-0.684 4.428,-2.146 5.728,-4.027 -1.596,0.68 -2.948,0.209 -5.703,0.19 0,0 0.163,3.062 -0.025,3.837 z"
       style="color:#000000;opacity:0.36932002;fill:none;stroke:url(#linearGradient8166)"
       sodipodi:nodetypes="cccc"
       id="path2247"
       inkscape:connector-curvature="0" /><path
       d="m 3.0625,8 0,22.062 C 25.3885,30.951 27.8845,17 43.0005,17 l 0,-9 -39.938,0 z"
       style="color:#000000;opacity:0.30114004;fill:url(#radialGradient8161)"
       sodipodi:nodetypes="ccccc"
       id="rect8150"
       inkscape:connector-curvature="0" /></g><metadata
     id="metadata61"><rdf:RDF><cc:Work><dc:format>image/svg+xml</dc:format><dc:type
           rdf:resource="http://purl.org/dc/dcmitype/StillImage" /><cc:license
           rdf:resource="http://creativecommons.org/publicdomain/zero/1.0/" /><dc:publisher><cc:Agent
             rdf:about="http://openclipart.org/"><dc:title>Openclipart</dc:title></cc:Agent></dc:publisher><dc:title></dc:title><dc:date>2010-04-02T18:56:59</dc:date><dc:description>An icon from Tango Project. Since version 0.8.90 Tango Project icons are Public Domain: </dc:description><dc:source>https://openclipart.org/detail/36091/tango-image-x-generic-by-warszawianka</dc:source><dc:creator><cc:Agent><dc:title>warszawianka</dc:title></cc:Agent></dc:creator><dc:subject><rdf:Bag><rdf:li>boat</rdf:li><rdf:li>externalsource</rdf:li><rdf:li>icon</rdf:li><rdf:li>night</rdf:li><rdf:li>picture</rdf:li><rdf:li>sailing</rdf:li><rdf:li>sea</rdf:li><rdf:li>tango</rdf:li></rdf:Bag></dc:subject></cc:Work><cc:License
         rdf:about="http://creativecommons.org/publicdomain/zero/1.0/"><cc:permits
           rdf:resource="http://creativecommons.org/ns#Reproduction" /><cc:permits
           rdf:resource="http://creativecommons.org/ns#Distribution" /><cc:permits
           rdf:resource="http://creativecommons.org/ns#DerivativeWorks" /></cc:License></rdf:RDF></metadata></svg>