<?xml version="1.0" encoding="UTF-8" standalone="no"?>
<!-- Created with Inkscape (http://www.inkscape.org/) -->

<svg
   xmlns:dc="http://purl.org/dc/elements/1.1/"
   xmlns:cc="http://creativecommons.org/ns#"
   xmlns:rdf="http://www.w3.org/1999/02/22-rdf-syntax-ns#"
   xmlns:svg="http://www.w3.org/2000/svg"
   xmlns="http://www.w3.org/2000/svg"
   xmlns:xlink="http://www.w3.org/1999/xlink"
   xmlns:sodipodi="http://sodipodi.sourceforge.net/DTD/sodipodi-0.dtd"
   xmlns:inkscape="http://www.inkscape.org/namespaces/inkscape"
   id="svg1"
   sodipodi:docname="btn-refresh.svg"
   viewBox="0 0 128 128"
   sodipodi:version="0.32"
   version="1.1"
   inkscape:version="0.91 r13725"
   width="128"
   height="128">
  <title
     id="title4154">Refresh Button</title>
  <defs
     id="defs3">
    <linearGradient
       id="linearGradient1697">
      <stop
         id="stop1698"
         style="stop-color:#0e56db"
         offset="0" />
      <stop
         id="stop1699"
         style="stop-color:#071176"
         offset="1" />
    </linearGradient>
    <linearGradient
       id="linearGradient1076"
       y2="466.28"
       xlink:href="#linearGradient1697"
       gradientUnits="userSpaceOnUse"
       x2="520.57001"
       y1="506.29001"
       x1="520.57001"
       inkscape:collect="always"
       gradientTransform="matrix(2.9814595,0,0,2.9814595,-1357.1494,-1248.7817)" />
    <linearGradient
       id="linearGradient1077"
       y2="505.07999"
       xlink:href="#linearGradient1697"
       gradientUnits="userSpaceOnUse"
       x2="522.94"
       y1="469.5"
       x1="522.94"
       inkscape:collect="always"
       gradientTransform="matrix(2.9814595,0,0,2.9814595,-1357.1494,-1248.7817)" />
    <linearGradient
       id="linearGradient1078"
       y2="463.47"
       gradientUnits="userSpaceOnUse"
       y1="183.48"
       gradientTransform="matrix(0.50570776,0,0,0.20943637,94.199064,106.71009)"
       x2="214.59"
       x1="213.83"
       inkscape:collect="always">
      <stop
         id="stop1703"
         style="stop-color:#ffffff;stop-opacity:.69072"
         offset="0" />
      <stop
         id="stop1704"
         style="stop-color:#ffffff;stop-opacity:0"
         offset="1" />
    </linearGradient>
  </defs>
  <sodipodi:namedview
     id="base"
     bordercolor="#666666"
     inkscape:pageshadow="2"
     inkscape:window-y="0"
     pagecolor="#ffffff"
     inkscape:window-maximized="1"
     inkscape:window-width="1600"
     inkscape:zoom="1.4142136"
     inkscape:window-x="1366"
     showgrid="false"
     borderopacity="1.0"
     inkscape:current-layer="layer1"
     inkscape:cx="36.412447"
     inkscape:cy="93.63016"
     inkscape:window-height="949"
     inkscape:pageopacity="0.0"
     fit-margin-top="0"
     fit-margin-left="0"
     fit-margin-right="0"
     fit-margin-bottom="0" />
  <g
     id="layer1"
     inkscape:label="Main"
     inkscape:groupmode="layer"
     transform="translate(-138.99649,-139.37474)"
     style="display:inline">
    <g
       id="g4171">
      <circle
         inkscape:label="Background"
         style="fill:url(#linearGradient1076);stroke:url(#linearGradient1077);stroke-width:4.06820154;stroke-linecap:round;stroke-linejoin:round"
         id="path1070"
         cx="202.99649"
         cy="203.37474"
         r="61.9659" />
      <g
         transform="matrix(2,0,0,2,-1408.4321,-1592.7782)"
         style="fill:#bb1e00;fill-opacity:1;image-rendering:auto"
         id="g3792">
        <g
           style="fill:#bb1e00;fill-opacity:1"
           id="g3636">
          <g
             style="fill:#bb1e00;fill-opacity:1"
             id="g3624" />
          <g
             style="fill:#bb1e00;fill-opacity:1"
             id="g3632" />
        </g>
      </g>
      <rect
         style="display:inline;fill:none;fill-opacity:1;image-rendering:auto"
         id="rect3454"
         width="128"
         height="128"
         x="138.99649"
         y="139.37474" />
      <rect
         style="display:inline;fill:none;fill-opacity:1;image-rendering:auto"
         id="rect3494"
         width="128"
         height="128"
         x="138.99649"
         y="139.37474" />
      <rect
         y="139.37474"
         x="138.99649"
         height="128"
         width="128"
         id="rect4191"
         style="display:inline;fill:none;fill-opacity:1;image-rendering:auto" />
      <rect
         style="display:inline;fill:none;fill-opacity:1;image-rendering:auto"
         id="rect3470"
         width="128"
         height="128"
         x="138.99649"
         y="139.37474" />
      <rect
         style="display:inline;fill:none;fill-opacity:1;image-rendering:auto"
         id="rect3482"
         width="128"
         height="128"
         x="138.99649"
         y="139.37474" />
      <g
         id="flowRoot4319"
         style="font-style:normal;font-variant:normal;font-weight:bold;font-stretch:normal;font-size:125px;line-height:100%;font-family:Jellee;-inkscape-font-specification:'Jellee, Bold';text-align:start;letter-spacing:0px;word-spacing:0px;writing-mode:lr-tb;text-anchor:start;fill:#ffffff;fill-opacity:1;stroke:#000000;stroke-width:2;stroke-linecap:butt;stroke-linejoin:miter;stroke-miterlimit:4;stroke-dasharray:none;stroke-opacity:1"
         transform="translate(333.74023,421.30163)">
        <path
           sodipodi:nodetypes="ccssccscccsccccccccccscccscccsccc"
           inkscape:connector-curvature="0"
           id="path4167"
           style="font-style:normal;font-variant:normal;font-weight:bold;font-stretch:normal;font-size:125px;line-height:100%;font-family:Jellee;-inkscape-font-specification:'Jellee, Bold';text-align:start;writing-mode:lr-tb;text-anchor:start;fill:#ffffff;fill-opacity:1;stroke:#000000;stroke-width:2;stroke-miterlimit:4;stroke-dasharray:none;stroke-opacity:1"
           d="m -148.52979,-235.41346 c -2.4414,2.40071 -4.31314,5.14729 -5.61523,8.23974 -1.2207,3.01107 -1.83105,6.26628 -1.83105,9.76563 0,3.37728 0.61035,6.57145 1.83105,9.58252 1.22071,3.01107 3.09245,5.75765 5.61523,8.23974 2.23796,2.23796 4.9642,4.06902 8.17872,5.49317 2.76693,1.26139 5.92041,1.89209 9.46045,1.89209 3.54003,0 6.77489,-0.6307 9.70458,-1.89209 3.09245,-1.30209 5.81869,-3.13314 8.17872,-5.49317 2.44141,-2.40071 4.31315,-5.14729 5.61523,-8.23974 1.2207,-3.01107 1.83105,-6.20524 1.83105,-9.58252 0,-3.49935 -0.61035,-6.75456 -1.83105,-9.76563 -1.26139,-3.09245 -3.15348,-5.83903 -5.67627,-8.23974 l 0,8.69295 c -2.29741,4.71389 -10.25838,4.75102 -12.51221,0 l 0,-25.53866 c 0.61789,-3.8547 2.8352,-5.60107 6.04248,-6.04248 l 25.763532,0 c 3.745186,1.66144 4.01659,10.97293 0,12.51221 l -8.917822,0 c 3.946938,4.1097 6.876625,8.4432 8.78906,13.00049 1.993815,4.80143 2.990722,9.92839 2.990722,15.38086 0,5.3304 -0.996907,10.39632 -2.990722,15.19775 -1.912435,4.55729 -4.842122,8.89079 -8.78906,13.00049 -3.86556,3.66211 -8.15837,6.57145 -12.87842,8.72803 -4.63867,1.95313 -9.70459,2.92969 -15.19775,2.92969 -5.49317,0 -10.55909,-0.97656 -15.19776,-2.92969 -4.72005,-2.15658 -9.01286,-5.06592 -12.87842,-8.72803 -3.94694,-4.1097 -6.87663,-8.4432 -8.78906,-13.00049 -1.99381,-4.80143 -2.99072,-9.86735 -2.99072,-15.19775 0,-5.45247 0.99691,-10.57943 2.99072,-15.38086 1.91243,-4.55729 4.84212,-8.89079 8.78906,-13.00049 5.52485,-2.19928 12.24775,4.57603 10.31494,10.37598 z" />
      </g>
      <path
         inkscape:label="Shine"
         inkscape:connector-curvature="0"
         sodipodi:nodetypes="cccccc"
         d="m 248.00006,187.05901 c 14.43996,-0.31568 -4.03551,-40.08171 -44.15627,-40.29325 -43.79177,-0.2213 -52.75125,36.11129 -45.79651,36.7752 0,0 11.99913,1.64675 23.41246,4.8361 18.37783,5.18433 40.85952,-4.25356 49.71811,-5.62693 9.87398,-1.52633 15.41629,5.01184 16.82221,4.30888 z"
         style="opacity:0.9;fill:url(#linearGradient1078);fill-rule:evenodd"
         id="path1713">
        <title
           id="title3379">Shine</title>
      </path>
    </g>
  </g>
  <metadata
     id="metadata16">
    <rdf:RDF>
      <cc:Work>
        <dc:format>image/svg+xml</dc:format>
        <dc:type
           rdf:resource="http://purl.org/dc/dcmitype/StillImage" />
        <cc:license
           rdf:resource="http://creativecommons.org/publicdomain/zero/1.0/" />
        <dc:publisher>
          <cc:Agent
             rdf:about="http://openclipart.org/">
            <dc:title>OpenClipart Library</dc:title>
          </cc:Agent>
        </dc:publisher>
        <dc:title>Refresh Button</dc:title>
        <dc:source />
        <dc:creator>
          <cc:Agent>
            <dc:title>Benji Park / Jordan Irwin</dc:title>
          </cc:Agent>
        </dc:creator>
        <dc:description>Button base: https://openclipart.org/detail/26191/button-blue</dc:description>
      </cc:Work>
      <cc:License
         rdf:about="http://creativecommons.org/publicdomain/zero/1.0/">
        <cc:permits
           rdf:resource="http://creativecommons.org/ns#Reproduction" />
        <cc:permits
           rdf:resource="http://creativecommons.org/ns#Distribution" />
        <cc:permits
           rdf:resource="http://creativecommons.org/ns#DerivativeWorks" />
      </cc:License>
    </rdf:RDF>
  </metadata>
</svg>
